<svg width="230" height="78" viewBox="0 0 230 78" fill="none" xmlns="http://www.w3.org/2000/svg">
<path fill-rule="evenodd" clip-rule="evenodd" d="M0 78L0 22.8614C0 22.8614 12.7968 48.0121 15 47.2579C26.8891 43.188 41.0634 18.1119 47.7083 18.1119C54.3533 18.1119 75.8333 38.9794 85.2778 38.9794C94.7222 38.9794 111.778 0 119 0C126.222 0 140.933 22.8614 147.61 22.8614C154.286 22.8614 175 5.96753 181.667 5.96753C188.333 5.96753 205.556 18.1119 212.222 18.1119C214.618 18.1119 230 10.0471 230 10.0471V78H0Z" fill="url(#paint0_linear_602_1717)"/>
<defs>
<linearGradient id="paint0_linear_602_1717" x1="115" y1="0" x2="115" y2="125" gradientUnits="userSpaceOnUse">
<stop stop-color="#0075FF"/>
<stop offset="0.4" stop-color="#00588B"/>
<stop offset="1" stop-color="#001C3D"/>
</linearGradient>
</defs>
</svg>
