<svg width="355" height="101" viewBox="0 0 355 101" fill="none" xmlns="http://www.w3.org/2000/svg">
<mask id="mask0_602_2049" style="mask-type:alpha" maskUnits="userSpaceOnUse" x="0" y="0" width="355" height="101">
<rect width="355" height="101" rx="14" fill="#121212"/>
<rect x="0.5" y="0.5" width="354" height="100" rx="13.5" stroke="white" stroke-opacity="0.1"/>
</mask>
<g mask="url(#mask0_602_2049)">
<g filter="url(#filter0_f_602_2049)">
<ellipse cx="53.0399" cy="44.3048" rx="53.0399" ry="44.3048" transform="matrix(0.950335 0.31123 -0.662933 0.748679 2.74219 51.6455)" fill="#2CA9EF" fill-opacity="0.5"/>
</g>
<g filter="url(#filter1_f_602_2049)">
<ellipse cx="43.7757" cy="40.3887" rx="43.7757" ry="40.3887" transform="matrix(0.950335 0.31123 -0.662933 0.748679 147.029 -41)" fill="#56FFF5" fill-opacity="0.5"/>
</g>
<g filter="url(#filter2_f_602_2049)">
<ellipse cx="65.6457" cy="88.135" rx="65.6457" ry="88.135" transform="matrix(0.597226 0.802073 -0.964108 0.26551 374.59 -7.26172)" fill="#0D5ACD" fill-opacity="0.5"/>
</g>
<g filter="url(#filter3_f_602_2049)">
<circle cx="362.5" cy="106.5" r="176.5" fill="url(#paint0_radial_602_2049)" fill-opacity="0.2"/>
</g>
<g filter="url(#filter4_b_602_2049)">
<path d="M-6 8C-6 0.26801 0.268013 -6 8 -6H350C357.732 -6 364 0.268014 364 8V101C364 108.732 357.732 115 350 115H8.00001C0.268023 115 -6 108.732 -6 101V8Z" fill="url(#paint1_linear_602_2049)"/>
</g>
</g>
<defs>
<filter id="filter0_f_602_2049" x="-116.613" y="-17.7769" width="280.779" height="238.2" filterUnits="userSpaceOnUse" color-interpolation-filters="sRGB">
<feFlood flood-opacity="0" result="BackgroundImageFix"/>
<feBlend mode="normal" in="SourceGraphic" in2="BackgroundImageFix" result="shape"/>
<feGaussianBlur stdDeviation="41.0208" result="effect1_foregroundBlur_602_2049"/>
</filter>
<filter id="filter1_f_602_2049" x="30.3354" y="-112.353" width="263.041" height="230.431" filterUnits="userSpaceOnUse" color-interpolation-filters="sRGB">
<feFlood flood-opacity="0" result="BackgroundImageFix"/>
<feBlend mode="normal" in="SourceGraphic" in2="BackgroundImageFix" result="shape"/>
<feGaussianBlur stdDeviation="41.0208" result="effect1_foregroundBlur_602_2049"/>
</filter>
<filter id="filter2_f_602_2049" x="105.69" y="-118.372" width="446.267" height="374.327" filterUnits="userSpaceOnUse" color-interpolation-filters="sRGB">
<feFlood flood-opacity="0" result="BackgroundImageFix"/>
<feBlend mode="normal" in="SourceGraphic" in2="BackgroundImageFix" result="shape"/>
<feGaussianBlur stdDeviation="64.7654" result="effect1_foregroundBlur_602_2049"/>
</filter>
<filter id="filter3_f_602_2049" x="123" y="-133" width="479" height="479" filterUnits="userSpaceOnUse" color-interpolation-filters="sRGB">
<feFlood flood-opacity="0" result="BackgroundImageFix"/>
<feBlend mode="normal" in="SourceGraphic" in2="BackgroundImageFix" result="shape"/>
<feGaussianBlur stdDeviation="31.5" result="effect1_foregroundBlur_602_2049"/>
</filter>
<filter id="filter4_b_602_2049" x="-76" y="-76" width="510" height="261" filterUnits="userSpaceOnUse" color-interpolation-filters="sRGB">
<feFlood flood-opacity="0" result="BackgroundImageFix"/>
<feGaussianBlur in="BackgroundImageFix" stdDeviation="35"/>
<feComposite in2="SourceAlpha" operator="in" result="effect1_backgroundBlur_602_2049"/>
<feBlend mode="normal" in="SourceGraphic" in2="effect1_backgroundBlur_602_2049" result="shape"/>
</filter>
<radialGradient id="paint0_radial_602_2049" cx="0" cy="0" r="1" gradientUnits="userSpaceOnUse" gradientTransform="translate(362.5 106.5) rotate(90) scale(176.5)">
<stop offset="0.505" stop-color="#333333"/>
<stop offset="1" stop-color="#7C7C7C"/>
</radialGradient>
<linearGradient id="paint1_linear_602_2049" x1="-34.1905" y1="-40.3018" x2="177.318" y2="256.654" gradientUnits="userSpaceOnUse">
<stop stop-color="#343434" stop-opacity="0.4"/>
<stop offset="0.765625" stop-color="#232323" stop-opacity="0.24"/>
</linearGradient>
</defs>
</svg>
