<svg width="732" height="78" viewBox="0 0 732 78" fill="none" xmlns="http://www.w3.org/2000/svg">
<path d="M52.804 71.7949L16.3975 22.2949C9.59786 13.0497 16.1992 0 27.6756 0H704.611C716.034 0 722.649 12.9413 715.959 22.1995L680.191 71.6995C677.559 75.3424 673.338 77.5 668.844 77.5H64.0821C59.6293 77.5 55.4421 75.3819 52.804 71.7949Z" fill="#121212"/>
<path d="M53.2234 71.4864L16.8169 21.9864C10.2701 13.0851 16.626 0.520626 27.6756 0.520626H704.611C715.609 0.520626 721.978 12.9807 715.537 21.8946L679.769 71.3946C677.235 74.902 673.171 76.9794 668.844 76.9794H64.0821C59.7949 76.9794 55.7634 74.94 53.2234 71.4864Z" stroke="white" stroke-opacity="0.1" stroke-width="1.04125"/>
<mask id="mask0_521_3118" style="mask-type:alpha" maskUnits="userSpaceOnUse" x="13" y="0" width="706" height="78">
<path d="M53.302 71.8419L16.5762 22.3419C9.72204 13.1036 16.3163 0 27.8196 0H704.755C716.15 0 722.771 12.8868 716.137 22.1512L680.688 71.6512C678.06 75.3223 673.821 77.5 669.306 77.5H64.5454C60.1133 77.5 55.9429 75.4013 53.302 71.8419Z" fill="#121212"/>
<path d="M53.7201 71.5316L16.9943 22.0316C10.395 13.137 16.7441 0.520626 27.8196 0.520626H704.755C715.726 0.520626 722.101 12.9282 715.714 21.8481L680.265 71.3481C677.734 74.8826 673.654 76.9794 669.306 76.9794H64.5454C60.2781 76.9794 56.2628 74.9587 53.7201 71.5316Z" stroke="white" stroke-opacity="0.1" stroke-width="1.04125"/>
</mask>
<g mask="url(#mask0_521_3118)">
<g filter="url(#filter0_f_521_3118)">
<ellipse cx="102.299" cy="65.0159" rx="102.299" ry="65.0159" transform="matrix(0.991256 0.13195 -0.908823 0.417182 4.45801 39.7559)" fill="#2CA9EF" fill-opacity="0.5"/>
</g>
<g filter="url(#filter1_f_521_3118)">
<ellipse cx="110.565" cy="82.4842" rx="110.565" ry="82.4842" transform="matrix(0.991256 0.13195 -0.908823 0.417182 294.73 -36)" fill="#56FFF5" fill-opacity="0.5"/>
</g>
<g filter="url(#filter2_f_521_3118)">
<ellipse cx="89.8581" cy="172.011" rx="89.8581" ry="172.011" transform="matrix(0.877739 0.479138 -0.993793 0.111243 752.528 -8.41113)" fill="#0D5ACD" fill-opacity="0.5"/>
</g>
<g filter="url(#filter3_b_521_3118)">
<path d="M0 12C0 4.26801 6.26801 -2 14 -2H718C725.732 -2 732 4.26801 732 12V78C732 85.732 725.732 92 718 92H14C6.26803 92 0 85.732 0 78V12Z" fill="url(#paint0_linear_521_3118)"/>
</g>
</g>
<mask id="path-9-inside-1_521_3118" fill="white">
<path d="M133.853 29.1468C133.853 27.1976 132.879 26.2229 130.929 26.2229H122.645C120.696 26.2229 119.721 27.1976 119.721 29.1468V44.741C119.721 46.6902 120.696 47.6649 122.645 47.6649H130.929C132.879 47.6649 133.853 46.6902 133.853 44.741V29.1468ZM142.625 44.741C142.625 48.1522 141.845 50.6375 140.286 52.1969C138.759 53.7239 136.29 54.4873 132.879 54.4873H120.696C117.284 54.4873 114.799 53.7239 113.24 52.1969C111.713 50.6375 110.949 48.1522 110.949 44.741V29.1468C110.949 25.7356 111.713 23.2665 113.24 21.7396C114.799 20.1802 117.284 19.4005 120.696 19.4005H132.879C136.29 19.4005 138.759 20.1802 140.286 21.7396C141.845 23.2665 142.625 25.7356 142.625 29.1468V44.741ZM194.303 34.9946L187.481 47.1776H180.658L173.836 34.9946V54H165.064V19.8878H174.323L184.07 37.9185L193.816 19.8878H203.075V54H194.303V34.9946ZM226.485 19.8878H245.978C249.162 19.8878 251.501 20.6188 252.995 22.0807C254.49 23.5102 255.237 25.7031 255.237 28.6595C255.237 30.6088 254.815 32.2007 253.97 33.4352C253.125 34.6373 252.086 35.482 250.851 35.9693C253.483 36.684 255.269 38.4383 256.212 41.2323C256.536 42.2394 256.699 43.409 256.699 44.741C256.699 47.9248 255.952 50.2639 254.457 51.7583C252.963 53.2528 250.624 54 247.44 54H226.485V19.8878ZM247.927 43.279C247.927 41.3298 246.953 40.3551 245.003 40.3551H235.257V47.1776H245.003C246.953 47.1776 247.927 46.2029 247.927 44.2537V43.279ZM246.465 29.6342C246.465 27.6849 245.491 26.7102 243.541 26.7102H235.257V33.5327H243.541C245.491 33.5327 246.465 32.5581 246.465 30.6088V29.6342ZM278.626 19.8878H299.094C302.505 19.8878 304.974 20.6675 306.501 22.2269C308.06 23.7539 308.84 26.2229 308.84 29.6342V34.02C308.84 36.7165 308.385 38.812 307.475 40.3064C306.598 41.8008 305.185 42.7917 303.236 43.279L309.327 54H299.825L294.22 43.7663H287.398V54H278.626V19.8878ZM300.068 29.6342C300.068 27.6849 299.094 26.7102 297.144 26.7102H287.398V36.9439H297.144C299.094 36.9439 300.068 35.9693 300.068 34.02V29.6342ZM353.172 29.1468C353.172 27.1976 352.198 26.2229 350.249 26.2229H341.964C340.015 26.2229 339.04 27.1976 339.04 29.1468V44.741C339.04 46.6902 340.015 47.6649 341.964 47.6649H350.249C352.198 47.6649 353.172 46.6902 353.172 44.741V29.1468ZM361.944 44.741C361.944 48.1522 361.164 50.6375 359.605 52.1969C358.078 53.7239 355.609 54.4873 352.198 54.4873H340.015C336.604 54.4873 334.118 53.7239 332.559 52.1969C331.032 50.6375 330.269 48.1522 330.269 44.741V29.1468C330.269 25.7356 331.032 23.2665 332.559 21.7396C334.118 20.1802 336.604 19.4005 340.015 19.4005H352.198C355.609 19.4005 358.078 20.1802 359.605 21.7396C361.164 23.2665 361.944 25.7356 361.944 29.1468V44.741ZM413.623 34.9946L406.8 47.1776H399.978L393.155 34.9946V54H384.384V19.8878H393.643L403.389 37.9185L413.135 19.8878H422.394V54H413.623V34.9946ZM472.851 54H445.805V19.8878H472.851V26.7102H454.576V33.289H468.952V40.1115H454.576V47.1776H472.851V54ZM510.85 54H502.078V26.7102H491.845V19.8878H521.084V26.7102H510.85V54ZM569.09 54H542.044V19.8878H569.09V26.7102H550.816V33.289H565.192V40.1115H550.816V47.1776H569.09V54ZM590.521 19.8878H610.988C614.399 19.8878 616.868 20.6675 618.395 22.2269C619.955 23.7539 620.734 26.2229 620.734 29.6342V34.02C620.734 36.7165 620.279 38.812 619.37 40.3064C618.493 41.8008 617.079 42.7917 615.13 43.279L621.222 54H611.719L606.115 43.7663H599.292V54H590.521V19.8878ZM611.963 29.6342C611.963 27.6849 610.988 26.7102 609.039 26.7102H599.292V36.9439H609.039C610.988 36.9439 611.963 35.9693 611.963 34.02V29.6342Z"/>
</mask>
<path d="M133.853 29.1468C133.853 27.1976 132.879 26.2229 130.929 26.2229H122.645C120.696 26.2229 119.721 27.1976 119.721 29.1468V44.741C119.721 46.6902 120.696 47.6649 122.645 47.6649H130.929C132.879 47.6649 133.853 46.6902 133.853 44.741V29.1468ZM142.625 44.741C142.625 48.1522 141.845 50.6375 140.286 52.1969C138.759 53.7239 136.29 54.4873 132.879 54.4873H120.696C117.284 54.4873 114.799 53.7239 113.24 52.1969C111.713 50.6375 110.949 48.1522 110.949 44.741V29.1468C110.949 25.7356 111.713 23.2665 113.24 21.7396C114.799 20.1802 117.284 19.4005 120.696 19.4005H132.879C136.29 19.4005 138.759 20.1802 140.286 21.7396C141.845 23.2665 142.625 25.7356 142.625 29.1468V44.741ZM194.303 34.9946L187.481 47.1776H180.658L173.836 34.9946V54H165.064V19.8878H174.323L184.07 37.9185L193.816 19.8878H203.075V54H194.303V34.9946ZM226.485 19.8878H245.978C249.162 19.8878 251.501 20.6188 252.995 22.0807C254.49 23.5102 255.237 25.7031 255.237 28.6595C255.237 30.6088 254.815 32.2007 253.97 33.4352C253.125 34.6373 252.086 35.482 250.851 35.9693C253.483 36.684 255.269 38.4383 256.212 41.2323C256.536 42.2394 256.699 43.409 256.699 44.741C256.699 47.9248 255.952 50.2639 254.457 51.7583C252.963 53.2528 250.624 54 247.44 54H226.485V19.8878ZM247.927 43.279C247.927 41.3298 246.953 40.3551 245.003 40.3551H235.257V47.1776H245.003C246.953 47.1776 247.927 46.2029 247.927 44.2537V43.279ZM246.465 29.6342C246.465 27.6849 245.491 26.7102 243.541 26.7102H235.257V33.5327H243.541C245.491 33.5327 246.465 32.5581 246.465 30.6088V29.6342ZM278.626 19.8878H299.094C302.505 19.8878 304.974 20.6675 306.501 22.2269C308.06 23.7539 308.84 26.2229 308.84 29.6342V34.02C308.84 36.7165 308.385 38.812 307.475 40.3064C306.598 41.8008 305.185 42.7917 303.236 43.279L309.327 54H299.825L294.22 43.7663H287.398V54H278.626V19.8878ZM300.068 29.6342C300.068 27.6849 299.094 26.7102 297.144 26.7102H287.398V36.9439H297.144C299.094 36.9439 300.068 35.9693 300.068 34.02V29.6342ZM353.172 29.1468C353.172 27.1976 352.198 26.2229 350.249 26.2229H341.964C340.015 26.2229 339.04 27.1976 339.04 29.1468V44.741C339.04 46.6902 340.015 47.6649 341.964 47.6649H350.249C352.198 47.6649 353.172 46.6902 353.172 44.741V29.1468ZM361.944 44.741C361.944 48.1522 361.164 50.6375 359.605 52.1969C358.078 53.7239 355.609 54.4873 352.198 54.4873H340.015C336.604 54.4873 334.118 53.7239 332.559 52.1969C331.032 50.6375 330.269 48.1522 330.269 44.741V29.1468C330.269 25.7356 331.032 23.2665 332.559 21.7396C334.118 20.1802 336.604 19.4005 340.015 19.4005H352.198C355.609 19.4005 358.078 20.1802 359.605 21.7396C361.164 23.2665 361.944 25.7356 361.944 29.1468V44.741ZM413.623 34.9946L406.8 47.1776H399.978L393.155 34.9946V54H384.384V19.8878H393.643L403.389 37.9185L413.135 19.8878H422.394V54H413.623V34.9946ZM472.851 54H445.805V19.8878H472.851V26.7102H454.576V33.289H468.952V40.1115H454.576V47.1776H472.851V54ZM510.85 54H502.078V26.7102H491.845V19.8878H521.084V26.7102H510.85V54ZM569.09 54H542.044V19.8878H569.09V26.7102H550.816V33.289H565.192V40.1115H550.816V47.1776H569.09V54ZM590.521 19.8878H610.988C614.399 19.8878 616.868 20.6675 618.395 22.2269C619.955 23.7539 620.734 26.2229 620.734 29.6342V34.02C620.734 36.7165 620.279 38.812 619.37 40.3064C618.493 41.8008 617.079 42.7917 615.13 43.279L621.222 54H611.719L606.115 43.7663H599.292V54H590.521V19.8878ZM611.963 29.6342C611.963 27.6849 610.988 26.7102 609.039 26.7102H599.292V36.9439H609.039C610.988 36.9439 611.963 35.9693 611.963 34.02V29.6342Z" fill="white"/>
<path d="M140.286 52.1969L139.571 51.4821L140.286 52.1969ZM113.24 52.1969L112.517 52.9042L112.525 52.9118L112.532 52.9193L113.24 52.1969ZM113.24 21.7396L112.525 21.0247L112.525 21.0247L113.24 21.7396ZM140.286 21.7396L139.563 22.4469L139.571 22.4545L139.578 22.462L140.286 21.7396ZM134.864 29.1468C134.864 28.0164 134.581 26.9828 133.837 26.239C133.093 25.4952 132.06 25.2119 130.929 25.2119V27.2339C131.748 27.2339 132.176 27.4379 132.407 27.6688C132.638 27.8996 132.842 28.328 132.842 29.1468H134.864ZM130.929 25.2119H122.645V27.2339H130.929V25.2119ZM122.645 25.2119C121.514 25.2119 120.481 25.4952 119.737 26.239C118.993 26.9828 118.71 28.0164 118.71 29.1468H120.732C120.732 28.328 120.936 27.8996 121.167 27.6688C121.398 27.4379 121.826 27.2339 122.645 27.2339V25.2119ZM118.71 29.1468V44.741H120.732V29.1468H118.71ZM118.71 44.741C118.71 45.8714 118.993 46.905 119.737 47.6488C120.481 48.3926 121.514 48.6759 122.645 48.6759V46.6539C121.826 46.6539 121.398 46.4499 121.167 46.219C120.936 45.9882 120.732 45.5598 120.732 44.741H118.71ZM122.645 48.6759H130.929V46.6539H122.645V48.6759ZM130.929 48.6759C132.06 48.6759 133.093 48.3926 133.837 47.6488C134.581 46.905 134.864 45.8714 134.864 44.741H132.842C132.842 45.5598 132.638 45.9882 132.407 46.219C132.176 46.4499 131.748 46.6539 130.929 46.6539V48.6759ZM134.864 44.741V29.1468H132.842V44.741H134.864ZM141.614 44.741C141.614 48.0272 140.859 50.1938 139.571 51.4821L141.001 52.9118C142.831 51.0812 143.636 48.2772 143.636 44.741H141.614ZM139.571 51.4821C138.318 52.7345 136.172 53.4763 132.879 53.4763V55.4983C136.407 55.4983 139.199 54.7132 141.001 52.9118L139.571 51.4821ZM132.879 53.4763H120.696V55.4983H132.879V53.4763ZM120.696 53.4763C117.405 53.4763 115.235 52.7355 113.947 51.4746L112.532 52.9193C114.363 54.7122 117.164 55.4983 120.696 55.4983V53.4763ZM113.962 51.4896C112.701 50.2018 111.96 48.032 111.96 44.741H109.938C109.938 48.2724 110.724 51.0732 112.517 52.9042L113.962 51.4896ZM111.96 44.741V29.1468H109.938V44.741H111.96ZM111.96 29.1468C111.96 25.8534 112.702 23.7069 113.955 22.4545L112.525 21.0247C110.723 22.8262 109.938 25.6179 109.938 29.1468H111.96ZM113.955 22.4545C115.243 21.1663 117.409 20.4115 120.696 20.4115V18.3895C117.159 18.3895 114.355 19.1941 112.525 21.0247L113.955 22.4545ZM120.696 20.4115H132.879V18.3895H120.696V20.4115ZM132.879 20.4115C136.167 20.4115 138.31 21.1673 139.563 22.4469L141.008 21.0323C139.207 19.1931 136.412 18.3895 132.879 18.3895V20.4115ZM139.578 22.462C140.858 23.715 141.614 25.8582 141.614 29.1468H143.636C143.636 25.613 142.832 22.8181 140.993 21.0173L139.578 22.462ZM141.614 29.1468V44.741H143.636V29.1468H141.614ZM194.303 34.9946H195.314V31.1202L193.421 34.5007L194.303 34.9946ZM187.481 47.1776V48.1885H188.073L188.363 47.6715L187.481 47.1776ZM180.658 47.1776L179.776 47.6715L180.066 48.1885H180.658V47.1776ZM173.836 34.9946L174.718 34.5007L172.825 31.1202V34.9946H173.836ZM173.836 54V55.011H174.847V54H173.836ZM165.064 54H164.053V55.011H165.064V54ZM165.064 19.8878V18.8768H164.053V19.8878H165.064ZM174.323 19.8878L175.213 19.4071L174.926 18.8768H174.323V19.8878ZM184.07 37.9185L183.18 38.3993L184.07 40.0446L184.959 38.3993L184.07 37.9185ZM193.816 19.8878V18.8768H193.213L192.927 19.4071L193.816 19.8878ZM203.075 19.8878H204.086V18.8768H203.075V19.8878ZM203.075 54V55.011H204.086V54H203.075ZM194.303 54H193.292V55.011H194.303V54ZM193.421 34.5007L186.599 46.6836L188.363 47.6715L195.185 35.4886L193.421 34.5007ZM187.481 46.1666H180.658V48.1885H187.481V46.1666ZM181.541 46.6836L174.718 34.5007L172.954 35.4886L179.776 47.6715L181.541 46.6836ZM172.825 34.9946V54H174.847V34.9946H172.825ZM173.836 52.989H165.064V55.011H173.836V52.989ZM166.075 54V19.8878H164.053V54H166.075ZM165.064 20.8988H174.323V18.8768H165.064V20.8988ZM173.434 20.3686L183.18 38.3993L184.959 37.4378L175.213 19.4071L173.434 20.3686ZM184.959 38.3993L194.705 20.3686L192.927 19.4071L183.18 37.4378L184.959 38.3993ZM193.816 20.8988H203.075V18.8768H193.816V20.8988ZM202.064 19.8878V54H204.086V19.8878H202.064ZM203.075 52.989H194.303V55.011H203.075V52.989ZM195.314 54V34.9946H193.292V54H195.314ZM226.485 19.8878V18.8768H225.474V19.8878H226.485ZM252.995 22.0807L252.288 22.8035L252.297 22.8113L252.995 22.0807ZM253.97 33.4352L254.797 34.0165L254.804 34.0061L253.97 33.4352ZM250.851 35.9693L250.48 35.0289L247.648 36.1468L250.586 36.9449L250.851 35.9693ZM256.212 41.2323L257.174 40.9219L257.17 40.9093L256.212 41.2323ZM254.457 51.7583L253.742 51.0435L254.457 51.7583ZM226.485 54H225.474V55.011H226.485V54ZM235.257 40.3551V39.3441H234.246V40.3551H235.257ZM235.257 47.1776H234.246V48.1885H235.257V47.1776ZM235.257 26.7102V25.6993H234.246V26.7102H235.257ZM235.257 33.5327H234.246V34.5437H235.257V33.5327ZM226.485 20.8988H245.978V18.8768H226.485V20.8988ZM245.978 20.8988C249.033 20.8988 251.061 21.6031 252.288 22.8034L253.702 21.3581C251.94 19.6344 249.291 18.8768 245.978 18.8768V20.8988ZM252.297 22.8113C253.519 23.9805 254.226 25.8589 254.226 28.6595H256.248C256.248 25.5474 255.461 23.0399 253.694 21.3502L252.297 22.8113ZM254.226 28.6595C254.226 30.4662 253.835 31.8422 253.136 32.8643L254.804 34.0061C255.794 32.5592 256.248 30.7514 256.248 28.6595H254.226ZM253.143 32.854C252.399 33.9123 251.511 34.6218 250.48 35.0289L251.222 36.9096C252.66 36.3421 253.851 35.3623 254.797 34.0165L253.143 32.854ZM250.586 36.9449C252.862 37.5631 254.409 39.0501 255.254 41.5553L257.17 40.9093C256.13 37.8266 254.103 35.8049 251.116 34.9936L250.586 36.9449ZM255.249 41.5427C255.535 42.4275 255.688 43.4884 255.688 44.741H257.71C257.71 43.3296 257.538 42.0514 257.174 40.9219L255.249 41.5427ZM255.688 44.741C255.688 47.7906 254.97 49.816 253.742 51.0435L255.172 52.4732C256.934 50.7118 257.71 48.059 257.71 44.741H255.688ZM253.742 51.0435C252.515 52.2709 250.49 52.989 247.44 52.989V55.011C250.758 55.011 253.411 54.2346 255.172 52.4732L253.742 51.0435ZM247.44 52.989H226.485V55.011H247.44V52.989ZM227.496 54V19.8878H225.474V54H227.496ZM248.938 43.279C248.938 42.1486 248.655 41.115 247.911 40.3712C247.167 39.6274 246.134 39.3441 245.003 39.3441V41.3661C245.822 41.3661 246.251 41.5701 246.481 41.801C246.712 42.0318 246.916 42.4602 246.916 43.279H248.938ZM245.003 39.3441H235.257V41.3661H245.003V39.3441ZM234.246 40.3551V47.1776H236.268V40.3551H234.246ZM235.257 48.1885H245.003V46.1666H235.257V48.1885ZM245.003 48.1885C246.134 48.1885 247.167 47.9052 247.911 47.1615C248.655 46.4177 248.938 45.3841 248.938 44.2537H246.916C246.916 45.0725 246.712 45.5009 246.481 45.7317C246.251 45.9626 245.822 46.1666 245.003 46.1666V48.1885ZM248.938 44.2537V43.279H246.916V44.2537H248.938ZM247.476 29.6342C247.476 28.5037 247.193 27.4701 246.449 26.7264C245.705 25.9826 244.672 25.6993 243.541 25.6993V27.7212C244.36 27.7212 244.789 27.9252 245.019 28.1561C245.25 28.3869 245.454 28.8154 245.454 29.6342H247.476ZM243.541 25.6993H235.257V27.7212H243.541V25.6993ZM234.246 26.7102V33.5327H236.268V26.7102H234.246ZM235.257 34.5437H243.541V32.5217H235.257V34.5437ZM243.541 34.5437C244.672 34.5437 245.705 34.2604 246.449 33.5166C247.193 32.7728 247.476 31.7393 247.476 30.6088H245.454C245.454 31.4276 245.25 31.856 245.019 32.0868C244.789 32.3177 244.36 32.5217 243.541 32.5217V34.5437ZM247.476 30.6088V29.6342H245.454V30.6088H247.476ZM278.626 19.8878V18.8768H277.615V19.8878H278.626ZM306.501 22.2269L305.778 22.9342L305.786 22.9418L305.794 22.9493L306.501 22.2269ZM307.475 40.3064L306.612 39.7807L306.608 39.7876L306.604 39.7946L307.475 40.3064ZM303.236 43.279L302.991 42.2982L301.699 42.6211L302.357 43.7785L303.236 43.279ZM309.327 54V55.011H311.064L310.206 53.5006L309.327 54ZM299.825 54L298.938 54.4856L299.226 55.011H299.825V54ZM294.22 43.7663L295.107 43.2808L294.819 42.7554H294.22V43.7663ZM287.398 43.7663V42.7554H286.387V43.7663H287.398ZM287.398 54V55.011H288.409V54H287.398ZM278.626 54H277.615V55.011H278.626V54ZM287.398 26.7102V25.6993H286.387V26.7102H287.398ZM287.398 36.9439H286.387V37.9549H287.398V36.9439ZM278.626 20.8988H299.094V18.8768H278.626V20.8988ZM299.094 20.8988C302.382 20.8988 304.525 21.6546 305.778 22.9342L307.223 21.5196C305.422 19.6804 302.627 18.8768 299.094 18.8768V20.8988ZM305.794 22.9493C307.073 24.2023 307.829 26.3456 307.829 29.6342H309.851C309.851 26.1003 309.047 23.3054 307.208 21.5046L305.794 22.9493ZM307.829 29.6342V34.02H309.851V29.6342H307.829ZM307.829 34.02C307.829 36.6234 307.386 38.5084 306.612 39.7807L308.339 40.8321C309.384 39.1155 309.851 36.8096 309.851 34.02H307.829ZM306.604 39.7946C305.886 41.0173 304.722 41.8654 302.991 42.2982L303.481 44.2598C305.648 43.7181 307.311 42.5844 308.347 40.8182L306.604 39.7946ZM302.357 43.7785L308.448 54.4994L310.206 53.5006L304.115 42.7796L302.357 43.7785ZM309.327 52.989H299.825V55.011H309.327V52.989ZM300.711 53.5144L295.107 43.2808L293.334 44.2519L298.938 54.4856L300.711 53.5144ZM294.22 42.7554H287.398V44.7773H294.22V42.7554ZM286.387 43.7663V54H288.409V43.7663H286.387ZM287.398 52.989H278.626V55.011H287.398V52.989ZM279.637 54V19.8878H277.615V54H279.637ZM301.079 29.6342C301.079 28.5037 300.796 27.4701 300.052 26.7264C299.308 25.9826 298.275 25.6993 297.144 25.6993V27.7212C297.963 27.7212 298.392 27.9252 298.622 28.1561C298.853 28.3869 299.057 28.8154 299.057 29.6342H301.079ZM297.144 25.6993H287.398V27.7212H297.144V25.6993ZM286.387 26.7102V36.9439H288.409V26.7102H286.387ZM287.398 37.9549H297.144V35.9329H287.398V37.9549ZM297.144 37.9549C298.275 37.9549 299.308 37.6716 300.052 36.9278C300.796 36.184 301.079 35.1505 301.079 34.02H299.057C299.057 34.8388 298.853 35.2672 298.622 35.4981C298.392 35.7289 297.963 35.9329 297.144 35.9329V37.9549ZM301.079 34.02V29.6342H299.057V34.02H301.079ZM359.605 52.1969L358.89 51.4821L359.605 52.1969ZM332.559 52.1969L331.837 52.9042L331.844 52.9118L331.852 52.9193L332.559 52.1969ZM332.559 21.7396L331.844 21.0247V21.0247L332.559 21.7396ZM359.605 21.7396L358.883 22.4469L358.89 22.4545L358.898 22.462L359.605 21.7396ZM354.183 29.1468C354.183 28.0164 353.9 26.9828 353.156 26.239C352.413 25.4952 351.379 25.2119 350.249 25.2119V27.2339C351.067 27.2339 351.496 27.4379 351.727 27.6688C351.957 27.8996 352.161 28.328 352.161 29.1468H354.183ZM350.249 25.2119H341.964V27.2339H350.249V25.2119ZM341.964 25.2119C340.834 25.2119 339.8 25.4952 339.056 26.239C338.313 26.9828 338.029 28.0164 338.029 29.1468H340.051C340.051 28.328 340.255 27.8996 340.486 27.6688C340.717 27.4379 341.145 27.2339 341.964 27.2339V25.2119ZM338.029 29.1468V44.741H340.051V29.1468H338.029ZM338.029 44.741C338.029 45.8714 338.313 46.905 339.056 47.6488C339.8 48.3926 340.834 48.6759 341.964 48.6759V46.6539C341.145 46.6539 340.717 46.4499 340.486 46.219C340.255 45.9882 340.051 45.5598 340.051 44.741H338.029ZM341.964 48.6759H350.249V46.6539H341.964V48.6759ZM350.249 48.6759C351.379 48.6759 352.413 48.3926 353.156 47.6488C353.9 46.905 354.183 45.8714 354.183 44.741H352.161C352.161 45.5598 351.957 45.9882 351.727 46.219C351.496 46.4499 351.067 46.6539 350.249 46.6539V48.6759ZM354.183 44.741V29.1468H352.161V44.741H354.183ZM360.933 44.741C360.933 48.0272 360.178 50.1938 358.89 51.4821L360.32 52.9118C362.151 51.0812 362.955 48.2772 362.955 44.741H360.933ZM358.89 51.4821C357.638 52.7345 355.491 53.4763 352.198 53.4763V55.4983C355.727 55.4983 358.518 54.7132 360.32 52.9118L358.89 51.4821ZM352.198 53.4763H340.015V55.4983H352.198V53.4763ZM340.015 53.4763C336.724 53.4763 334.554 52.7355 333.266 51.4746L331.852 52.9193C333.683 54.7122 336.483 55.4983 340.015 55.4983V53.4763ZM333.281 51.4896C332.02 50.2018 331.28 48.032 331.28 44.741H329.258C329.258 48.2724 330.044 51.0732 331.837 52.9042L333.281 51.4896ZM331.28 44.741V29.1468H329.258V44.741H331.28ZM331.28 29.1468C331.28 25.8534 332.021 23.7069 333.274 22.4545L331.844 21.0247C330.043 22.8262 329.258 25.6179 329.258 29.1468H331.28ZM333.274 22.4545C334.562 21.1663 336.729 20.4115 340.015 20.4115V18.3895C336.479 18.3895 333.675 19.1941 331.844 21.0247L333.274 22.4545ZM340.015 20.4115H352.198V18.3895H340.015V20.4115ZM352.198 20.4115C355.486 20.4115 357.63 21.1673 358.883 22.4469L360.327 21.0323C358.527 19.1931 355.732 18.3895 352.198 18.3895V20.4115ZM358.898 22.462C360.177 23.715 360.933 25.8582 360.933 29.1468H362.955C362.955 25.613 362.152 22.8181 360.312 21.0173L358.898 22.462ZM360.933 29.1468V44.741H362.955V29.1468H360.933ZM413.623 34.9946H414.634V31.1202L412.741 34.5007L413.623 34.9946ZM406.8 47.1776V48.1885H407.393L407.682 47.6715L406.8 47.1776ZM399.978 47.1776L399.096 47.6715L399.385 48.1885H399.978V47.1776ZM393.155 34.9946L394.037 34.5007L392.144 31.1202V34.9946H393.155ZM393.155 54V55.011H394.166V54H393.155ZM384.384 54H383.373V55.011H384.384V54ZM384.384 19.8878V18.8768H383.373V19.8878H384.384ZM393.643 19.8878L394.532 19.4071L394.245 18.8768H393.643V19.8878ZM403.389 37.9185L402.5 38.3993L403.389 40.0446L404.278 38.3993L403.389 37.9185ZM413.135 19.8878V18.8768H412.533L412.246 19.4071L413.135 19.8878ZM422.394 19.8878H423.405V18.8768H422.394V19.8878ZM422.394 54V55.011H423.405V54H422.394ZM413.623 54H412.612V55.011H413.623V54ZM412.741 34.5007L405.918 46.6836L407.682 47.6715L414.505 35.4886L412.741 34.5007ZM406.8 46.1666H399.978V48.1885H406.8V46.1666ZM400.86 46.6836L394.037 34.5007L392.273 35.4886L399.096 47.6715L400.86 46.6836ZM392.144 34.9946V54H394.166V34.9946H392.144ZM393.155 52.989H384.384V55.011H393.155V52.989ZM385.395 54V19.8878H383.373V54H385.395ZM384.384 20.8988H393.643V18.8768H384.384V20.8988ZM392.753 20.3686L402.5 38.3993L404.278 37.4378L394.532 19.4071L392.753 20.3686ZM404.278 38.3993L414.025 20.3686L412.246 19.4071L402.5 37.4378L404.278 38.3993ZM413.135 20.8988H422.394V18.8768H413.135V20.8988ZM421.383 19.8878V54H423.405V19.8878H421.383ZM422.394 52.989H413.623V55.011H422.394V52.989ZM414.634 54V34.9946H412.612V54H414.634ZM472.851 54V55.011H473.862V54H472.851ZM445.805 54H444.794V55.011H445.805V54ZM445.805 19.8878V18.8768H444.794V19.8878H445.805ZM472.851 19.8878H473.862V18.8768H472.851V19.8878ZM472.851 26.7102V27.7212H473.862V26.7102H472.851ZM454.576 26.7102V25.6993H453.565V26.7102H454.576ZM454.576 33.289H453.565V34.3H454.576V33.289ZM468.952 33.289H469.963V32.278H468.952V33.289ZM468.952 40.1115V41.1224H469.963V40.1115H468.952ZM454.576 40.1115V39.1005H453.565V40.1115H454.576ZM454.576 47.1776H453.565V48.1885H454.576V47.1776ZM472.851 47.1776H473.862V46.1666H472.851V47.1776ZM472.851 52.989H445.805V55.011H472.851V52.989ZM446.816 54V19.8878H444.794V54H446.816ZM445.805 20.8988H472.851V18.8768H445.805V20.8988ZM471.84 19.8878V26.7102H473.862V19.8878H471.84ZM472.851 25.6993H454.576V27.7212H472.851V25.6993ZM453.565 26.7102V33.289H455.587V26.7102H453.565ZM454.576 34.3H468.952V32.278H454.576V34.3ZM467.941 33.289V40.1115H469.963V33.289H467.941ZM468.952 39.1005H454.576V41.1224H468.952V39.1005ZM453.565 40.1115V47.1776H455.587V40.1115H453.565ZM454.576 48.1885H472.851V46.1666H454.576V48.1885ZM471.84 47.1776V54H473.862V47.1776H471.84ZM510.85 54V55.011H511.861V54H510.85ZM502.078 54H501.067V55.011H502.078V54ZM502.078 26.7102H503.089V25.6993H502.078V26.7102ZM491.845 26.7102H490.834V27.7212H491.845V26.7102ZM491.845 19.8878V18.8768H490.834V19.8878H491.845ZM521.084 19.8878H522.095V18.8768H521.084V19.8878ZM521.084 26.7102V27.7212H522.095V26.7102H521.084ZM510.85 26.7102V25.6993H509.839V26.7102H510.85ZM510.85 52.989H502.078V55.011H510.85V52.989ZM503.089 54V26.7102H501.067V54H503.089ZM502.078 25.6993H491.845V27.7212H502.078V25.6993ZM492.856 26.7102V19.8878H490.834V26.7102H492.856ZM491.845 20.8988H521.084V18.8768H491.845V20.8988ZM520.073 19.8878V26.7102H522.095V19.8878H520.073ZM521.084 25.6993H510.85V27.7212H521.084V25.6993ZM509.839 26.7102V54H511.861V26.7102H509.839ZM569.09 54V55.011H570.101V54H569.09ZM542.044 54H541.033V55.011H542.044V54ZM542.044 19.8878V18.8768H541.033V19.8878H542.044ZM569.09 19.8878H570.101V18.8768H569.09V19.8878ZM569.09 26.7102V27.7212H570.101V26.7102H569.09ZM550.816 26.7102V25.6993H549.805V26.7102H550.816ZM550.816 33.289H549.805V34.3H550.816V33.289ZM565.192 33.289H566.203V32.278H565.192V33.289ZM565.192 40.1115V41.1224H566.203V40.1115H565.192ZM550.816 40.1115V39.1005H549.805V40.1115H550.816ZM550.816 47.1776H549.805V48.1885H550.816V47.1776ZM569.09 47.1776H570.101V46.1666H569.09V47.1776ZM569.09 52.989H542.044V55.011H569.09V52.989ZM543.055 54V19.8878H541.033V54H543.055ZM542.044 20.8988H569.09V18.8768H542.044V20.8988ZM568.079 19.8878V26.7102H570.101V19.8878H568.079ZM569.09 25.6993H550.816V27.7212H569.09V25.6993ZM549.805 26.7102V33.289H551.827V26.7102H549.805ZM550.816 34.3H565.192V32.278H550.816V34.3ZM564.181 33.289V40.1115H566.203V33.289H564.181ZM565.192 39.1005H550.816V41.1224H565.192V39.1005ZM549.805 40.1115V47.1776H551.827V40.1115H549.805ZM550.816 48.1885H569.09V46.1666H550.816V48.1885ZM568.079 47.1776V54H570.101V47.1776H568.079ZM590.521 19.8878V18.8768H589.51V19.8878H590.521ZM618.395 22.2269L617.673 22.9342L617.68 22.9418L617.688 22.9493L618.395 22.2269ZM619.37 40.3064L618.506 39.7807L618.502 39.7876L618.498 39.7946L619.37 40.3064ZM615.13 43.279L614.885 42.2982L613.593 42.6211L614.251 43.7785L615.13 43.279ZM621.222 54V55.011H622.959L622.101 53.5006L621.222 54ZM611.719 54L610.832 54.4856L611.12 55.011H611.719V54ZM606.115 43.7663L607.001 43.2808L606.714 42.7554H606.115V43.7663ZM599.292 43.7663V42.7554H598.281V43.7663H599.292ZM599.292 54V55.011H600.303V54H599.292ZM590.521 54H589.51V55.011H590.521V54ZM599.292 26.7102V25.6993H598.281V26.7102H599.292ZM599.292 36.9439H598.281V37.9549H599.292V36.9439ZM590.521 20.8988H610.988V18.8768H590.521V20.8988ZM610.988 20.8988C614.276 20.8988 616.42 21.6546 617.673 22.9342L619.117 21.5196C617.317 19.6804 614.522 18.8768 610.988 18.8768V20.8988ZM617.688 22.9493C618.967 24.2023 619.723 26.3456 619.723 29.6342H621.745C621.745 26.1003 620.942 23.3054 619.102 21.5046L617.688 22.9493ZM619.723 29.6342V34.02H621.745V29.6342H619.723ZM619.723 34.02C619.723 36.6234 619.281 38.5084 618.506 39.7807L620.233 40.8321C621.278 39.1155 621.745 36.8096 621.745 34.02H619.723ZM618.498 39.7946C617.78 41.0173 616.616 41.8654 614.885 42.2982L615.375 44.2598C617.542 43.7181 619.205 42.5844 620.242 40.8182L618.498 39.7946ZM614.251 43.7785L620.343 54.4994L622.101 53.5006L616.009 42.7796L614.251 43.7785ZM621.222 52.989H611.719V55.011H621.222V52.989ZM612.606 53.5144L607.001 43.2808L605.228 44.2519L610.832 54.4856L612.606 53.5144ZM606.115 42.7554H599.292V44.7773H606.115V42.7554ZM598.281 43.7663V54H600.303V43.7663H598.281ZM599.292 52.989H590.521V55.011H599.292V52.989ZM591.532 54V19.8878H589.51V54H591.532ZM612.974 29.6342C612.974 28.5037 612.69 27.4701 611.946 26.7264C611.203 25.9826 610.169 25.6993 609.039 25.6993V27.7212C609.857 27.7212 610.286 27.9252 610.517 28.1561C610.748 28.3869 610.952 28.8154 610.952 29.6342H612.974ZM609.039 25.6993H599.292V27.7212H609.039V25.6993ZM598.281 26.7102V36.9439H600.303V26.7102H598.281ZM599.292 37.9549H609.039V35.9329H599.292V37.9549ZM609.039 37.9549C610.169 37.9549 611.203 37.6716 611.946 36.9278C612.69 36.184 612.974 35.1505 612.974 34.02H610.952C610.952 34.8388 610.748 35.2672 610.517 35.4981C610.286 35.7289 609.857 35.9329 609.039 35.9329V37.9549ZM612.974 34.02V29.6342H610.952V34.02H612.974Z" fill="white" mask="url(#path-9-inside-1_521_3118)"/>
<defs>
<filter id="filter0_f_521_3118" x="-152.65" y="-31.9673" width="398.849" height="224.689" filterUnits="userSpaceOnUse" color-interpolation-filters="sRGB">
<feFlood flood-opacity="0" result="BackgroundImageFix"/>
<feBlend mode="normal" in="SourceGraphic" in2="BackgroundImageFix" result="shape"/>
<feGaussianBlur stdDeviation="41.0208" result="effect1_foregroundBlur_521_3118"/>
</filter>
<filter id="filter1_f_521_3118" x="114.528" y="-106.427" width="429.675" height="238.855" filterUnits="userSpaceOnUse" color-interpolation-filters="sRGB">
<feFlood flood-opacity="0" result="BackgroundImageFix"/>
<feBlend mode="normal" in="SourceGraphic" in2="BackgroundImageFix" result="shape"/>
<feGaussianBlur stdDeviation="41.0208" result="effect1_foregroundBlur_521_3118"/>
</filter>
<filter id="filter2_f_521_3118" x="342.62" y="-122.879" width="635.675" height="353.316" filterUnits="userSpaceOnUse" color-interpolation-filters="sRGB">
<feFlood flood-opacity="0" result="BackgroundImageFix"/>
<feBlend mode="normal" in="SourceGraphic" in2="BackgroundImageFix" result="shape"/>
<feGaussianBlur stdDeviation="64.7654" result="effect1_foregroundBlur_521_3118"/>
</filter>
<filter id="filter3_b_521_3118" x="-70" y="-72" width="872" height="234" filterUnits="userSpaceOnUse" color-interpolation-filters="sRGB">
<feFlood flood-opacity="0" result="BackgroundImageFix"/>
<feGaussianBlur in="BackgroundImageFix" stdDeviation="35"/>
<feComposite in2="SourceAlpha" operator="in" result="effect1_backgroundBlur_521_3118"/>
<feBlend mode="normal" in="SourceGraphic" in2="effect1_backgroundBlur_521_3118" result="shape"/>
</filter>
<linearGradient id="paint0_linear_521_3118" x1="-55.7715" y1="-28.6477" x2="34.4265" y2="293.85" gradientUnits="userSpaceOnUse">
<stop stop-color="#343434" stop-opacity="0.4"/>
<stop offset="0.765625" stop-color="#232323" stop-opacity="0.24"/>
</linearGradient>
</defs>
</svg>
