<svg width="383" height="311" viewBox="0 0 383 311" fill="none" xmlns="http://www.w3.org/2000/svg">
<g filter="url(#filter0_f_602_2303)">
<circle cx="231.522" cy="99.6577" r="57.6577" fill="#FFC701" fill-opacity="0.5"/>
</g>
<circle cx="231.51" cy="101.551" r="54.8221" fill="url(#paint0_linear_602_2303)" stroke="url(#paint1_linear_602_2303)" stroke-width="1.89042"/>
<mask id="mask0_602_2303" style="mask-type:alpha" maskUnits="userSpaceOnUse" x="175" y="77" width="113" height="81">
<path d="M287.288 101.547C287.288 132.346 262.32 157.314 231.52 157.314C200.721 157.314 175.753 132.346 175.753 101.547C175.753 70.7476 196.467 77.9168 227.267 77.9168C258.066 77.9168 287.288 70.7476 287.288 101.547Z" fill="url(#paint2_linear_602_2303)"/>
</mask>
<g mask="url(#mask0_602_2303)">
<g filter="url(#filter1_f_602_2303)">
<path fill-rule="evenodd" clip-rule="evenodd" d="M275.468 244.268C275.628 244.269 275.789 244.27 275.95 244.27C298.397 244.27 316.594 226.073 316.594 203.626C316.594 181.179 298.397 162.982 275.95 162.982C275.789 162.982 275.628 162.983 275.468 162.985V162.982H249.563C250.131 159.601 250.426 156.128 250.426 152.586C250.426 118.132 222.496 90.2021 188.042 90.2021C153.588 90.2021 125.658 118.132 125.658 152.586C125.658 156.266 125.977 159.872 126.588 163.377C106.832 166.142 91.6289 183.109 91.6289 203.626C91.6289 226.073 109.826 244.27 132.273 244.27C132.43 244.27 132.587 244.269 132.743 244.268L132.741 244.27H275.468V244.268Z" fill="#E18700"/>
</g>
</g>
<g filter="url(#filter2_bd_602_2303)">
<mask id="path-5-inside-1_602_2303" fill="white">
<path fill-rule="evenodd" clip-rule="evenodd" d="M251.839 248.996C251.999 248.998 252.16 248.999 252.321 248.999C274.768 248.999 292.965 230.802 292.965 208.355C292.965 185.908 274.768 167.711 252.321 167.711C252.16 167.711 251.999 167.712 251.839 167.714V167.711H241.341C241.72 164.929 241.916 162.088 241.916 159.202C241.916 124.749 213.986 96.8184 179.532 96.8184C145.079 96.8184 117.148 124.749 117.148 159.202C117.148 162.454 117.397 165.647 117.877 168.764C114.911 168.075 111.82 167.711 108.644 167.711C86.1969 167.711 68 185.908 68 208.355C68 230.802 86.1969 248.999 108.644 248.999C108.801 248.999 108.958 248.998 109.114 248.996L109.112 248.999H251.839V248.996Z"/>
</mask>
<path fill-rule="evenodd" clip-rule="evenodd" d="M251.839 248.996C251.999 248.998 252.16 248.999 252.321 248.999C274.768 248.999 292.965 230.802 292.965 208.355C292.965 185.908 274.768 167.711 252.321 167.711C252.16 167.711 251.999 167.712 251.839 167.714V167.711H241.341C241.72 164.929 241.916 162.088 241.916 159.202C241.916 124.749 213.986 96.8184 179.532 96.8184C145.079 96.8184 117.148 124.749 117.148 159.202C117.148 162.454 117.397 165.647 117.877 168.764C114.911 168.075 111.82 167.711 108.644 167.711C86.1969 167.711 68 185.908 68 208.355C68 230.802 86.1969 248.999 108.644 248.999C108.801 248.999 108.958 248.998 109.114 248.996L109.112 248.999H251.839V248.996Z" fill="url(#paint3_linear_602_2303)" shape-rendering="crispEdges"/>
<path d="M251.839 248.996L251.861 247.106C251.356 247.1 250.869 247.296 250.51 247.652C250.151 248.007 249.948 248.491 249.948 248.996H251.839ZM251.839 167.714H249.948C249.948 168.219 250.151 168.703 250.51 169.058C250.869 169.413 251.356 169.61 251.861 169.604L251.839 167.714ZM251.839 167.711H253.729C253.729 166.667 252.883 165.821 251.839 165.821V167.711ZM241.341 167.711L239.467 167.455C239.394 167.996 239.557 168.543 239.916 168.954C240.275 169.365 240.795 169.601 241.341 169.601V167.711ZM117.877 168.764L117.449 170.606C118.06 170.748 118.702 170.577 119.162 170.15C119.622 169.724 119.841 169.097 119.745 168.477L117.877 168.764ZM109.114 248.996L110.6 250.165C111.05 249.594 111.132 248.814 110.81 248.161C110.489 247.508 109.821 247.098 109.093 247.106L109.114 248.996ZM109.112 248.999L107.627 247.83C107.179 248.399 107.096 249.173 107.412 249.824C107.728 250.476 108.388 250.889 109.112 250.889V248.999ZM251.839 248.999V250.889C252.883 250.889 253.729 250.043 253.729 248.999H251.839ZM251.817 250.886C251.985 250.888 252.153 250.889 252.321 250.889V247.108C252.167 247.108 252.014 247.108 251.861 247.106L251.817 250.886ZM252.321 250.889C275.812 250.889 294.855 231.846 294.855 208.355H291.074C291.074 229.758 273.724 247.108 252.321 247.108V250.889ZM294.855 208.355C294.855 184.864 275.812 165.821 252.321 165.821V169.601C273.724 169.601 291.074 186.952 291.074 208.355H294.855ZM252.321 165.821C252.153 165.821 251.985 165.822 251.817 165.823L251.861 169.604C252.014 169.602 252.167 169.601 252.321 169.601V165.821ZM249.948 167.711V167.714H253.729V167.711H249.948ZM241.341 169.601H251.839V165.821H241.341V169.601ZM243.214 167.966C243.605 165.1 243.806 162.174 243.806 159.202H240.026C240.026 162.003 239.835 164.758 239.467 167.455L243.214 167.966ZM243.806 159.202C243.806 123.704 215.03 94.9279 179.532 94.9279V98.7088C212.942 98.7088 240.026 125.793 240.026 159.202H243.806ZM179.532 94.9279C144.035 94.9279 115.258 123.704 115.258 159.202H119.039C119.039 125.793 146.123 98.7088 179.532 98.7088V94.9279ZM115.258 159.202C115.258 162.55 115.514 165.84 116.008 169.052L119.745 168.477C119.28 165.454 119.039 162.357 119.039 159.202H115.258ZM118.304 166.923C115.199 166.201 111.965 165.821 108.644 165.821V169.601C111.675 169.601 114.622 169.949 117.449 170.606L118.304 166.923ZM108.644 165.821C85.1529 165.821 66.1096 184.864 66.1096 208.355H69.8904C69.8904 186.952 87.241 169.601 108.644 169.601V165.821ZM66.1096 208.355C66.1096 231.846 85.1529 250.889 108.644 250.889V247.108C87.241 247.108 69.8904 229.758 69.8904 208.355H66.1096ZM108.644 250.889C108.808 250.889 108.972 250.888 109.136 250.886L109.093 247.106C108.943 247.108 108.794 247.108 108.644 247.108V250.889ZM110.598 250.168L110.6 250.165L107.629 247.827L107.627 247.83L110.598 250.168ZM251.839 247.108H109.112V250.889H251.839V247.108ZM249.948 248.996V248.999H253.729V248.996H249.948Z" fill="url(#paint4_linear_602_2303)" mask="url(#path-5-inside-1_602_2303)"/>
</g>
<g filter="url(#filter3_bd_602_2303)">
<mask id="path-7-inside-2_602_2303" fill="white">
<path fill-rule="evenodd" clip-rule="evenodd" d="M325.632 206.796C325.745 206.797 325.858 206.798 325.972 206.798C342.194 206.798 355.345 193.647 355.345 177.425C355.345 161.202 342.194 148.052 325.972 148.052C325.858 148.052 325.745 148.052 325.632 148.054V148.052H318.036C318.311 146.041 318.452 143.988 318.452 141.902C318.452 117.003 298.267 96.8184 273.368 96.8184C248.469 96.8184 228.284 117.003 228.284 141.902C228.284 144.252 228.464 146.56 228.81 148.813C226.667 148.315 224.434 148.052 222.14 148.052C205.917 148.052 192.767 161.202 192.767 177.425C192.767 193.647 205.917 206.798 222.14 206.798C222.256 206.798 222.371 206.797 222.487 206.796L222.485 206.798H325.632V206.796Z"/>
</mask>
<path fill-rule="evenodd" clip-rule="evenodd" d="M325.632 206.796C325.745 206.797 325.858 206.798 325.972 206.798C342.194 206.798 355.345 193.647 355.345 177.425C355.345 161.202 342.194 148.052 325.972 148.052C325.858 148.052 325.745 148.052 325.632 148.054V148.052H318.036C318.311 146.041 318.452 143.988 318.452 141.902C318.452 117.003 298.267 96.8184 273.368 96.8184C248.469 96.8184 228.284 117.003 228.284 141.902C228.284 144.252 228.464 146.56 228.81 148.813C226.667 148.315 224.434 148.052 222.14 148.052C205.917 148.052 192.767 161.202 192.767 177.425C192.767 193.647 205.917 206.798 222.14 206.798C222.256 206.798 222.371 206.797 222.487 206.796L222.485 206.798H325.632V206.796Z" fill="url(#paint5_linear_602_2303)" shape-rendering="crispEdges"/>
<path d="M325.632 206.796L325.654 204.905C325.149 204.9 324.662 205.096 324.303 205.451C323.944 205.807 323.742 206.291 323.742 206.796H325.632ZM325.632 148.054H323.742C323.742 148.559 323.944 149.043 324.303 149.398C324.662 149.753 325.149 149.95 325.654 149.944L325.632 148.054ZM325.632 148.052H327.523C327.523 147.008 326.676 146.161 325.632 146.161V148.052ZM318.036 148.052L316.163 147.796C316.09 148.337 316.253 148.884 316.612 149.295C316.971 149.706 317.491 149.942 318.036 149.942V148.052ZM228.81 148.813L228.383 150.654C228.994 150.796 229.636 150.625 230.096 150.199C230.556 149.772 230.774 149.145 230.679 148.525L228.81 148.813ZM222.487 206.796L223.972 207.966C224.422 207.394 224.505 206.614 224.183 205.961C223.861 205.307 223.193 204.897 222.465 204.905L222.487 206.796ZM222.485 206.798L221 205.628C220.552 206.197 220.468 206.971 220.785 207.623C221.101 208.274 221.761 208.688 222.485 208.688V206.798ZM325.632 206.798V208.688C326.676 208.688 327.523 207.842 327.523 206.798H325.632ZM325.611 208.686C325.731 208.687 325.851 208.688 325.972 208.688V204.907C325.865 204.907 325.759 204.907 325.654 204.905L325.611 208.686ZM325.972 208.688C343.238 208.688 357.235 194.691 357.235 177.425H353.454C353.454 192.603 341.15 204.907 325.972 204.907V208.688ZM357.235 177.425C357.235 160.158 343.238 146.161 325.972 146.161V149.942C341.15 149.942 353.454 162.247 353.454 177.425H357.235ZM325.972 146.161C325.851 146.161 325.731 146.162 325.611 146.163L325.654 149.944C325.759 149.943 325.865 149.942 325.972 149.942V146.161ZM323.742 148.052V148.054H327.523V148.052H323.742ZM318.036 149.942H325.632V146.161H318.036V149.942ZM319.91 148.307C320.195 146.212 320.343 144.074 320.343 141.902H316.562C316.562 143.903 316.426 145.87 316.163 147.796L319.91 148.307ZM320.343 141.902C320.343 115.959 299.312 94.9279 273.368 94.9279V98.7088C297.223 98.7088 316.562 118.047 316.562 141.902H320.343ZM273.368 94.9279C247.425 94.9279 226.394 115.959 226.394 141.902H230.175C230.175 118.047 249.513 98.7088 273.368 98.7088V94.9279ZM226.394 141.902C226.394 144.349 226.581 146.752 226.942 149.1L230.679 148.525C230.347 146.367 230.175 144.156 230.175 141.902H226.394ZM229.238 146.971C226.956 146.441 224.579 146.161 222.14 146.161V149.942C224.289 149.942 226.379 150.189 228.383 150.654L229.238 146.971ZM222.14 146.161C204.873 146.161 190.876 160.158 190.876 177.425H194.657C194.657 162.247 206.961 149.942 222.14 149.942V146.161ZM190.876 177.425C190.876 194.691 204.873 208.688 222.14 208.688V204.907C206.961 204.907 194.657 192.603 194.657 177.425H190.876ZM222.14 208.688C222.263 208.688 222.386 208.687 222.509 208.686L222.465 204.905C222.357 204.907 222.248 204.907 222.14 204.907V208.688ZM223.97 207.968L223.972 207.966L221.002 205.626L221 205.628L223.97 207.968ZM325.632 204.907H222.485V208.688H325.632V204.907ZM323.742 206.796V206.798H327.523V206.796H323.742Z" fill="url(#paint6_linear_602_2303)" mask="url(#path-7-inside-2_602_2303)"/>
</g>
<defs>
<filter id="filter0_f_602_2303" x="132.275" y="0.410828" width="198.494" height="198.494" filterUnits="userSpaceOnUse" color-interpolation-filters="sRGB">
<feFlood flood-opacity="0" result="BackgroundImageFix"/>
<feBlend mode="normal" in="SourceGraphic" in2="BackgroundImageFix" result="shape"/>
<feGaussianBlur stdDeviation="20.7946" result="effect1_foregroundBlur_602_2303"/>
</filter>
<filter id="filter1_f_602_2303" x="78.396" y="76.9692" width="251.431" height="180.534" filterUnits="userSpaceOnUse" color-interpolation-filters="sRGB">
<feFlood flood-opacity="0" result="BackgroundImageFix"/>
<feBlend mode="normal" in="SourceGraphic" in2="BackgroundImageFix" result="shape"/>
<feGaussianBlur stdDeviation="6.61646" result="effect1_foregroundBlur_602_2303"/>
</filter>
<filter id="filter2_bd_602_2303" x="0.890198" y="63.7361" width="319.486" height="246.702" filterUnits="userSpaceOnUse" color-interpolation-filters="sRGB">
<feFlood flood-opacity="0" result="BackgroundImageFix"/>
<feGaussianBlur in="BackgroundImageFix" stdDeviation="6.61646"/>
<feComposite in2="SourceAlpha" operator="in" result="effect1_backgroundBlur_602_2303"/>
<feColorMatrix in="SourceAlpha" type="matrix" values="0 0 0 0 0 0 0 0 0 0 0 0 0 0 0 0 0 0 127 0" result="hardAlpha"/>
<feOffset dx="-19.8494" dy="14.1781"/>
<feGaussianBlur stdDeviation="23.6302"/>
<feComposite in2="hardAlpha" operator="out"/>
<feColorMatrix type="matrix" values="0 0 0 0 0.113725 0 0 0 0 0.14902 0 0 0 0 0.27451 0 0 0 0.25 0"/>
<feBlend mode="normal" in2="effect1_backgroundBlur_602_2303" result="effect2_dropShadow_602_2303"/>
<feBlend mode="normal" in="SourceGraphic" in2="effect2_dropShadow_602_2303" result="shape"/>
</filter>
<filter id="filter3_bd_602_2303" x="125.657" y="63.7361" width="257.099" height="204.5" filterUnits="userSpaceOnUse" color-interpolation-filters="sRGB">
<feFlood flood-opacity="0" result="BackgroundImageFix"/>
<feGaussianBlur in="BackgroundImageFix" stdDeviation="6.61646"/>
<feComposite in2="SourceAlpha" operator="in" result="effect1_backgroundBlur_602_2303"/>
<feColorMatrix in="SourceAlpha" type="matrix" values="0 0 0 0 0 0 0 0 0 0 0 0 0 0 0 0 0 0 127 0" result="hardAlpha"/>
<feOffset dx="-19.8494" dy="14.1781"/>
<feGaussianBlur stdDeviation="23.6302"/>
<feComposite in2="hardAlpha" operator="out"/>
<feColorMatrix type="matrix" values="0 0 0 0 0.113438 0 0 0 0 0.148981 0 0 0 0 0.275 0 0 0 0.25 0"/>
<feBlend mode="normal" in2="effect1_backgroundBlur_602_2303" result="effect2_dropShadow_602_2303"/>
<feBlend mode="normal" in="SourceGraphic" in2="effect2_dropShadow_602_2303" result="shape"/>
</filter>
<linearGradient id="paint0_linear_602_2303" x1="231.51" y1="45.7832" x2="231.51" y2="157.318" gradientUnits="userSpaceOnUse">
<stop stop-color="#FFE600"/>
<stop offset="1" stop-color="#FF7A00"/>
</linearGradient>
<linearGradient id="paint1_linear_602_2303" x1="231.51" y1="45.7832" x2="231.51" y2="157.318" gradientUnits="userSpaceOnUse">
<stop stop-color="white"/>
<stop offset="1" stop-color="white" stop-opacity="0"/>
</linearGradient>
<linearGradient id="paint2_linear_602_2303" x1="231.52" y1="45.7797" x2="231.52" y2="157.314" gradientUnits="userSpaceOnUse">
<stop stop-color="#FFD600"/>
<stop offset="1" stop-color="#FF7A00"/>
</linearGradient>
<linearGradient id="paint3_linear_602_2303" x1="180.482" y1="48.1394" x2="180.482" y2="270.267" gradientUnits="userSpaceOnUse">
<stop stop-color="white"/>
<stop offset="1" stop-color="white" stop-opacity="0"/>
</linearGradient>
<linearGradient id="paint4_linear_602_2303" x1="180.482" y1="96.8184" x2="180.482" y2="248.999" gradientUnits="userSpaceOnUse">
<stop stop-color="white"/>
<stop offset="1" stop-color="white" stop-opacity="0"/>
</linearGradient>
<linearGradient id="paint5_linear_602_2303" x1="281.617" y1="100.127" x2="281.617" y2="219.225" gradientUnits="userSpaceOnUse">
<stop stop-color="white"/>
<stop offset="1" stop-color="white" stop-opacity="0"/>
</linearGradient>
<linearGradient id="paint6_linear_602_2303" x1="274.056" y1="96.8184" x2="274.056" y2="206.798" gradientUnits="userSpaceOnUse">
<stop stop-color="white"/>
<stop offset="1" stop-color="white" stop-opacity="0"/>
</linearGradient>
</defs>
</svg>
