<svg width="33" height="33" viewBox="0 0 33 33" fill="none" xmlns="http://www.w3.org/2000/svg">
<path d="M16.492 32.9841C25.5355 32.9841 33 25.5196 33 16.492C33 7.46448 25.5196 0 16.4761 0C7.44853 0 0 7.46448 0 16.492C0 25.5196 7.46448 32.9841 16.492 32.9841ZM16.492 29.6984C9.1711 29.6984 3.31754 23.813 3.31754 16.492C3.31754 9.1711 9.1711 3.30159 16.4761 3.30159C23.797 3.30159 29.6825 9.1711 29.6984 16.492C29.7144 23.813 23.813 29.6984 16.492 29.6984ZM16.4761 9.53794C17.3852 9.53794 18.1189 8.80425 18.1189 7.91107C18.1189 7.00193 17.4012 6.26825 16.4761 6.26825C15.5988 6.26825 14.8492 7.00193 14.8492 7.91107C14.8492 8.80425 15.5829 9.53794 16.4761 9.53794ZM21.1493 11.0691C22.0585 11.0691 22.7922 10.3354 22.7922 9.42629C22.7922 8.53311 22.0585 7.78347 21.1493 7.78347C20.2562 7.78347 19.5225 8.53311 19.5225 9.42629C19.5225 10.3354 20.2562 11.0691 21.1493 11.0691ZM11.6433 11.0851C12.5524 11.0851 13.2861 10.3354 13.2861 9.42629C13.2861 8.53311 12.5524 7.78347 11.6433 7.78347C10.7342 7.78347 10.0005 8.53311 10.0005 9.42629C10.0005 10.3354 10.7342 11.0851 11.6433 11.0851ZM8.62881 14.6259C9.53794 14.6259 10.2716 13.8922 10.2716 12.9831C10.2716 12.0739 9.53794 11.3403 8.62881 11.3403C7.73562 11.3403 7.00193 12.0739 7.00193 12.9831C7.00193 13.8922 7.73562 14.6259 8.62881 14.6259ZM24.1798 14.6578C25.0889 14.6578 25.8226 13.9241 25.8226 13.015C25.8226 12.1058 25.0889 11.3722 24.1798 11.3722C23.2707 11.3722 22.537 12.1058 22.537 13.015C22.537 13.9241 23.2707 14.6578 24.1798 14.6578ZM16.492 26.1895C17.9594 26.1895 19.1397 24.9932 19.1397 23.5099C19.1397 22.4572 18.5017 21.5321 17.5926 21.1174V13.956C17.5926 13.3021 17.1141 12.8076 16.492 12.8076C15.87 12.8076 15.3755 13.3021 15.3755 13.956V21.1174C14.4664 21.5321 13.8284 22.4572 13.8284 23.5099C13.8284 24.9932 15.0087 26.1895 16.492 26.1895Z" fill="white"/>
</svg>
