<svg width="161" height="146" viewBox="0 0 161 146" fill="none" xmlns="http://www.w3.org/2000/svg">
<g filter="url(#filter0_bd_602_2329)">
<mask id="path-1-inside-1_602_2329" fill="white">
<path fill-rule="evenodd" clip-rule="evenodd" d="M76.7121 54.9781C76.7556 54.9786 76.7992 54.9788 76.8428 54.9788C83.0347 54.9788 88.0542 49.9593 88.0542 43.7674C88.0542 37.5755 83.0347 32.556 76.8428 32.556C76.7992 32.556 76.7556 32.5562 76.7121 32.5567V32.556H73.8157C73.9204 31.7883 73.9745 31.0046 73.9745 30.2083C73.9745 20.7044 66.2701 13 56.7662 13C47.2623 13 39.5579 20.7044 39.5579 30.2083C39.5579 31.1054 39.6266 31.9865 39.7589 32.8466C38.9405 32.6565 38.0877 32.556 37.2114 32.556C31.0195 32.556 26 37.5755 26 43.7674C26 49.9593 31.0195 54.9788 37.2114 54.9788C37.2551 54.9788 37.2987 54.9786 37.3423 54.9781L37.3417 54.9788H76.7121V54.9781Z"/>
</mask>
<path fill-rule="evenodd" clip-rule="evenodd" d="M76.7121 54.9781C76.7556 54.9786 76.7992 54.9788 76.8428 54.9788C83.0347 54.9788 88.0542 49.9593 88.0542 43.7674C88.0542 37.5755 83.0347 32.556 76.8428 32.556C76.7992 32.556 76.7556 32.5562 76.7121 32.5567V32.556H73.8157C73.9204 31.7883 73.9745 31.0046 73.9745 30.2083C73.9745 20.7044 66.2701 13 56.7662 13C47.2623 13 39.5579 20.7044 39.5579 30.2083C39.5579 31.1054 39.6266 31.9865 39.7589 32.8466C38.9405 32.6565 38.0877 32.556 37.2114 32.556C31.0195 32.556 26 37.5755 26 43.7674C26 49.9593 31.0195 54.9788 37.2114 54.9788C37.2551 54.9788 37.2987 54.9786 37.3423 54.9781L37.3417 54.9788H76.7121V54.9781Z" fill="url(#paint0_linear_602_2329)" shape-rendering="crispEdges"/>
<path d="M76.7121 54.9781L76.7204 54.2566C76.5276 54.2544 76.3419 54.3294 76.2048 54.465C76.0677 54.6005 75.9906 54.7853 75.9906 54.9781H76.7121ZM76.7121 32.5567H75.9906C75.9906 32.7495 76.0677 32.9343 76.2048 33.0698C76.3419 33.2054 76.5276 33.2804 76.7204 33.2782L76.7121 32.5567ZM76.7121 32.556H77.4337C77.4337 32.1574 77.1106 31.8344 76.7121 31.8344V32.556ZM73.8157 32.556L73.1007 32.4584C73.0725 32.6649 73.135 32.8734 73.272 33.0304C73.4091 33.1874 73.6073 33.2775 73.8157 33.2775V32.556ZM39.7589 32.8466L39.5956 33.5495C39.8289 33.6037 40.0739 33.5386 40.2495 33.3758C40.4251 33.213 40.5085 32.9736 40.4721 32.7369L39.7589 32.8466ZM37.3423 54.9781L37.9086 55.4252C38.0809 55.207 38.1125 54.9092 37.9898 54.6597C37.8672 54.4102 37.612 54.2534 37.334 54.2566L37.3423 54.9781ZM37.3417 54.9788L36.7754 54.5317C36.604 54.7487 36.5718 55.0446 36.6924 55.2935C36.813 55.5423 37.0652 55.7004 37.3417 55.7004V54.9788ZM76.7121 54.9788V55.7004C77.1106 55.7004 77.4337 55.3773 77.4337 54.9788H76.7121ZM76.7039 55.6996C76.7501 55.7001 76.7964 55.7004 76.8428 55.7004V54.2573C76.8019 54.2573 76.7611 54.257 76.7204 54.2566L76.7039 55.6996ZM76.8428 55.7004C83.4332 55.7004 88.7758 50.3578 88.7758 43.7674H87.3327C87.3327 49.5608 82.6362 54.2573 76.8428 54.2573V55.7004ZM88.7758 43.7674C88.7758 37.177 83.4332 31.8344 76.8428 31.8344V33.2775C82.6362 33.2775 87.3327 37.974 87.3327 43.7674H88.7758ZM76.8428 31.8344C76.7964 31.8344 76.7501 31.8347 76.7039 31.8352L76.7204 33.2782C76.7611 33.2777 76.8019 33.2775 76.8428 33.2775V31.8344ZM75.9906 32.556V32.5567H77.4337V32.556H75.9906ZM73.8157 33.2775H76.7121V31.8344H73.8157V33.2775ZM74.5306 32.6535C74.6397 31.8536 74.696 31.0373 74.696 30.2083H73.2529C73.2529 30.9719 73.201 31.723 73.1007 32.4584L74.5306 32.6535ZM74.696 30.2083C74.696 20.3059 66.6686 12.2784 56.7662 12.2784V13.7216C65.8716 13.7216 73.2529 21.1029 73.2529 30.2083H74.696ZM56.7662 12.2784C46.8638 12.2784 38.8364 20.3059 38.8364 30.2083H40.2795C40.2795 21.1029 47.6608 13.7216 56.7662 13.7216V12.2784ZM38.8364 30.2083C38.8364 31.1423 38.9079 32.0601 39.0458 32.9564L40.4721 32.7369C40.3453 31.913 40.2795 31.0685 40.2795 30.2083H38.8364ZM39.9222 32.1438C39.0507 31.9413 38.1431 31.8344 37.2114 31.8344V33.2775C38.0324 33.2775 38.8304 33.3717 39.5956 33.5495L39.9222 32.1438ZM37.2114 31.8344C30.621 31.8344 25.2784 37.177 25.2784 43.7674H26.7216C26.7216 37.974 31.418 33.2775 37.2114 33.2775V31.8344ZM25.2784 43.7674C25.2784 50.3578 30.621 55.7004 37.2114 55.7004V54.2573C31.418 54.2573 26.7216 49.5608 26.7216 43.7674H25.2784ZM37.2114 55.7004C37.2579 55.7004 37.3042 55.7001 37.3506 55.6996L37.334 54.2566C37.2933 54.257 37.2524 54.2573 37.2114 54.2573V55.7004ZM37.908 55.426L37.9086 55.4252L36.776 54.531L36.7754 54.5317L37.908 55.426ZM76.7121 54.2573H37.3417V55.7004H76.7121V54.2573ZM75.9906 54.9781V54.9788H77.4337V54.9781H75.9906Z" fill="url(#paint1_linear_602_2329)" mask="url(#path-1-inside-1_602_2329)"/>
</g>
<g filter="url(#filter1_bd_602_2329)">
<mask id="path-3-inside-2_602_2329" fill="white">
<path fill-rule="evenodd" clip-rule="evenodd" d="M110.603 83.7124C110.663 83.7131 110.724 83.7134 110.784 83.7134C119.352 83.7134 126.297 76.7678 126.297 68.1999C126.297 59.632 119.352 52.6864 110.784 52.6864C110.724 52.6864 110.663 52.6867 110.603 52.6874V52.6864H106.596C106.741 51.6247 106.816 50.5408 106.816 49.4394C106.816 36.2887 96.1551 25.6279 83.0044 25.6279C69.8537 25.6279 59.193 36.2887 59.193 49.4394C59.193 50.6803 59.2879 51.8991 59.4709 53.0888C58.3382 52.8256 57.1579 52.6864 55.9451 52.6864C47.3773 52.6864 40.4316 59.632 40.4316 68.1999C40.4316 76.7678 47.3773 83.7134 55.9451 83.7134C56.0057 83.7134 56.0661 83.7131 56.1264 83.7124L56.1256 83.7134H110.603V83.7124Z"/>
</mask>
<path fill-rule="evenodd" clip-rule="evenodd" d="M110.603 83.7124C110.663 83.7131 110.724 83.7134 110.784 83.7134C119.352 83.7134 126.297 76.7678 126.297 68.1999C126.297 59.632 119.352 52.6864 110.784 52.6864C110.724 52.6864 110.663 52.6867 110.603 52.6874V52.6864H106.596C106.741 51.6247 106.816 50.5408 106.816 49.4394C106.816 36.2887 96.1551 25.6279 83.0044 25.6279C69.8537 25.6279 59.193 36.2887 59.193 49.4394C59.193 50.6803 59.2879 51.8991 59.4709 53.0888C58.3382 52.8256 57.1579 52.6864 55.9451 52.6864C47.3773 52.6864 40.4316 59.632 40.4316 68.1999C40.4316 76.7678 47.3773 83.7134 55.9451 83.7134C56.0057 83.7134 56.0661 83.7131 56.1264 83.7124L56.1256 83.7134H110.603V83.7124Z" fill="url(#paint2_linear_602_2329)" shape-rendering="crispEdges"/>
<path d="M110.603 83.7124L110.611 82.9909C110.419 82.9887 110.233 83.0637 110.096 83.1993C109.959 83.3348 109.882 83.5196 109.882 83.7124H110.603ZM110.603 52.6874H109.882C109.882 52.8802 109.959 53.065 110.096 53.2006C110.233 53.3361 110.419 53.4111 110.611 53.4089L110.603 52.6874ZM110.603 52.6864H111.325C111.325 52.2879 111.002 51.9648 110.603 51.9648V52.6864ZM106.596 52.6864L105.881 52.5889C105.853 52.7954 105.916 53.0039 106.053 53.1609C106.19 53.3179 106.388 53.408 106.596 53.408V52.6864ZM59.4709 53.0888L59.3075 53.7916C59.5408 53.8458 59.7858 53.7808 59.9614 53.618C60.137 53.4552 60.2205 53.2158 60.184 52.9791L59.4709 53.0888ZM56.1264 83.7124L56.693 84.1592C56.8651 83.9409 56.8966 83.6432 56.7739 83.3938C56.6512 83.1444 56.3961 82.9877 56.1182 82.9909L56.1264 83.7124ZM56.1256 83.7134L55.559 83.2666C55.3878 83.4837 55.3557 83.7795 55.4764 84.0283C55.597 84.277 55.8491 84.435 56.1256 84.435V83.7134ZM110.603 83.7134V84.435C111.002 84.435 111.325 84.1119 111.325 83.7134H110.603ZM110.595 84.4339C110.658 84.4346 110.721 84.435 110.784 84.435V82.9919C110.726 82.9919 110.669 82.9915 110.611 82.9909L110.595 84.4339ZM110.784 84.435C119.75 84.435 127.019 77.1663 127.019 68.1999H125.576C125.576 76.3693 118.953 82.9919 110.784 82.9919V84.435ZM127.019 68.1999C127.019 59.2335 119.75 51.9648 110.784 51.9648V53.408C118.953 53.408 125.576 60.0305 125.576 68.1999H127.019ZM110.784 51.9648C110.721 51.9648 110.658 51.9652 110.595 51.9659L110.611 53.4089C110.669 53.4083 110.726 53.408 110.784 53.408V51.9648ZM109.882 52.6864V52.6874H111.325V52.6864H109.882ZM106.596 53.408H110.603V51.9648H106.596V53.408ZM107.311 52.7839C107.46 51.69 107.537 50.5735 107.537 49.4394H106.094C106.094 50.5081 106.022 51.5595 105.881 52.5889L107.311 52.7839ZM107.537 49.4394C107.537 35.8902 96.5536 24.9064 83.0044 24.9064V26.3495C95.7566 26.3495 106.094 36.6872 106.094 49.4394H107.537ZM83.0044 24.9064C69.4552 24.9064 58.4714 35.8902 58.4714 49.4394H59.9145C59.9145 36.6872 70.2522 26.3495 83.0044 26.3495V24.9064ZM58.4714 49.4394C58.4714 50.7171 58.5692 51.9726 58.7577 53.1985L60.184 52.9791C60.0066 51.8255 59.9145 50.6434 59.9145 49.4394H58.4714ZM59.6342 52.386C58.4484 52.1104 57.2133 51.9648 55.9451 51.9648V53.408C57.1026 53.408 58.228 53.5408 59.3075 53.7916L59.6342 52.386ZM55.9451 51.9648C46.9788 51.9648 39.7101 59.2335 39.7101 68.1999H41.1532C41.1532 60.0305 47.7758 53.408 55.9451 53.408V51.9648ZM39.7101 68.1999C39.7101 77.1663 46.9788 84.435 55.9451 84.435V82.9919C47.7758 82.9919 41.1532 76.3693 41.1532 68.1999H39.7101ZM55.9451 84.435C56.0084 84.435 56.0716 84.4346 56.1347 84.4339L56.1182 82.9909C56.0606 82.9915 56.0029 82.9919 55.9451 82.9919V84.435ZM56.6922 84.1602L56.693 84.1592L55.5598 83.2656L55.559 83.2666L56.6922 84.1602ZM110.603 82.9919H56.1256V84.435H110.603V82.9919ZM109.882 83.7124V83.7134H111.325V83.7124H109.882Z" fill="url(#paint3_linear_602_2329)" mask="url(#path-3-inside-2_602_2329)"/>
</g>
<g filter="url(#filter2_bdd_602_2329)">
<path d="M99.1 89.3207L116.35 57.7525C116.477 57.521 116.72 57.377 116.984 57.377H133.943C134.486 57.377 134.834 57.9529 134.582 58.4333L123.783 79.0497C123.532 79.5301 123.88 80.106 124.422 80.106H137.671C138.295 80.106 138.624 80.8439 138.209 81.3087L101.973 121.807C101.441 122.401 100.48 121.82 100.76 121.073L111.862 91.3624C112.038 90.8908 111.69 90.3882 111.186 90.3882H99.7332C99.1852 90.3882 98.8372 89.8015 99.1 89.3207Z" fill="url(#paint4_linear_602_2329)"/>
<path d="M99.4166 89.4937L116.667 57.9255C116.73 57.8097 116.852 57.7377 116.984 57.7377H133.943C134.214 57.7377 134.389 58.0257 134.263 58.2659L123.464 78.8823C123.086 79.6029 123.609 80.4668 124.422 80.4668H137.671C137.983 80.4668 138.148 80.8358 137.94 81.0682L101.705 121.566C101.439 121.864 100.958 121.573 101.098 121.199L112.2 91.4887C112.464 90.7813 111.941 90.0275 111.186 90.0275H99.7332C99.4592 90.0275 99.2852 89.7341 99.4166 89.4937Z" stroke="url(#paint5_linear_602_2329)" stroke-width="0.721558"/>
</g>
<g filter="url(#filter3_bd_602_2329)">
<mask id="path-7-inside-3_602_2329" fill="white">
<path fill-rule="evenodd" clip-rule="evenodd" d="M138.767 67.6051C138.81 67.6056 138.854 67.6059 138.897 67.6059C145.089 67.6059 150.109 62.5863 150.109 56.3944C150.109 50.2025 145.089 45.183 138.897 45.183C138.854 45.183 138.81 45.1832 138.767 45.1837V45.183H135.87C135.975 44.4156 136.029 43.6322 136.029 42.8362C136.029 33.3323 128.325 25.6279 118.821 25.6279C109.317 25.6279 101.613 33.3323 101.613 42.8362C101.613 43.733 101.681 44.6138 101.813 45.4736C100.995 45.2835 100.142 45.183 99.2661 45.183C93.0742 45.183 88.0547 50.2025 88.0547 56.3944C88.0547 62.5863 93.0742 67.6059 99.2661 67.6059C99.3098 67.6059 99.3534 67.6056 99.397 67.6051L99.3964 67.6059H138.767V67.6051Z"/>
</mask>
<path fill-rule="evenodd" clip-rule="evenodd" d="M138.767 67.6051C138.81 67.6056 138.854 67.6059 138.897 67.6059C145.089 67.6059 150.109 62.5863 150.109 56.3944C150.109 50.2025 145.089 45.183 138.897 45.183C138.854 45.183 138.81 45.1832 138.767 45.1837V45.183H135.87C135.975 44.4156 136.029 43.6322 136.029 42.8362C136.029 33.3323 128.325 25.6279 118.821 25.6279C109.317 25.6279 101.613 33.3323 101.613 42.8362C101.613 43.733 101.681 44.6138 101.813 45.4736C100.995 45.2835 100.142 45.183 99.2661 45.183C93.0742 45.183 88.0547 50.2025 88.0547 56.3944C88.0547 62.5863 93.0742 67.6059 99.2661 67.6059C99.3098 67.6059 99.3534 67.6056 99.397 67.6051L99.3964 67.6059H138.767V67.6051Z" fill="url(#paint6_linear_602_2329)" shape-rendering="crispEdges"/>
<path d="M138.767 67.6051L138.775 66.8836C138.582 66.8814 138.397 66.9564 138.26 67.092C138.122 67.2275 138.045 67.4123 138.045 67.6051H138.767ZM138.767 45.1837H138.045C138.045 45.3765 138.122 45.5613 138.26 45.6968C138.397 45.8324 138.582 45.9074 138.775 45.9052L138.767 45.1837ZM138.767 45.183H139.488C139.488 44.7845 139.165 44.4614 138.767 44.4614V45.183ZM135.87 45.183L135.156 45.0855C135.127 45.2919 135.19 45.5005 135.327 45.6575C135.464 45.8144 135.662 45.9045 135.87 45.9045V45.183ZM101.813 45.4736L101.65 46.1765C101.883 46.2307 102.128 46.1656 102.304 46.0028C102.48 45.84 102.563 45.6006 102.527 45.3639L101.813 45.4736ZM99.397 67.6051L99.9633 68.0522C100.136 67.834 100.167 67.5362 100.045 67.2867C99.9218 67.0372 99.6667 66.8804 99.3887 66.8836L99.397 67.6051ZM99.3964 67.6059L98.8301 67.1587C98.6587 67.3758 98.6265 67.6716 98.7471 67.9205C98.8677 68.1694 99.1199 68.3274 99.3964 68.3274V67.6059ZM138.767 67.6059V68.3274C139.165 68.3274 139.488 68.0044 139.488 67.6059H138.767ZM138.759 68.3266C138.805 68.3271 138.851 68.3274 138.897 68.3274V66.8843C138.857 66.8843 138.816 66.8841 138.775 66.8836L138.759 68.3266ZM138.897 68.3274C145.488 68.3274 150.83 62.9848 150.83 56.3944H149.387C149.387 62.1878 144.691 66.8843 138.897 66.8843V68.3274ZM150.83 56.3944C150.83 49.804 145.488 44.4614 138.897 44.4614V45.9045C144.691 45.9045 149.387 50.601 149.387 56.3944H150.83ZM138.897 44.4614C138.851 44.4614 138.805 44.4617 138.759 44.4622L138.775 45.9052C138.816 45.9048 138.857 45.9045 138.897 45.9045V44.4614ZM138.045 45.183V45.1837H139.488V45.183H138.045ZM135.87 45.9045H138.767V44.4614H135.87V45.9045ZM136.585 45.2805C136.694 44.4809 136.751 43.6649 136.751 42.8362H135.308C135.308 43.5995 135.256 44.3504 135.156 45.0855L136.585 45.2805ZM136.751 42.8362C136.751 32.9338 128.723 24.9064 118.821 24.9064V26.3495C127.926 26.3495 135.308 33.7308 135.308 42.8362H136.751ZM118.821 24.9064C108.919 24.9064 100.891 32.9338 100.891 42.8362H102.334C102.334 33.7308 109.716 26.3495 118.821 26.3495V24.9064ZM100.891 42.8362C100.891 43.7699 100.962 44.6873 101.1 45.5833L102.527 45.3639C102.4 44.5403 102.334 43.6962 102.334 42.8362H100.891ZM101.977 44.7708C101.105 44.5683 100.198 44.4614 99.2661 44.4614V45.9045C100.087 45.9045 100.885 45.9987 101.65 46.1765L101.977 44.7708ZM99.2661 44.4614C92.6757 44.4614 87.3331 49.804 87.3331 56.3944H88.7762C88.7762 50.601 93.4727 45.9045 99.2661 45.9045V44.4614ZM87.3331 56.3944C87.3331 62.9848 92.6757 68.3274 99.2661 68.3274V66.8843C93.4727 66.8843 88.7762 62.1878 88.7762 56.3944H87.3331ZM99.2661 68.3274C99.3125 68.3274 99.3589 68.3271 99.4053 68.3266L99.3887 66.8836C99.3479 66.8841 99.3071 66.8843 99.2661 66.8843V68.3274ZM99.9627 68.053L99.9633 68.0522L98.8307 67.158L98.8301 67.1587L99.9627 68.053ZM138.767 66.8843H99.3964V68.3274H138.767V66.8843ZM138.045 67.6051V67.6059H139.488V67.6051H138.045Z" fill="url(#paint7_linear_602_2329)" mask="url(#path-7-inside-3_602_2329)"/>
</g>
<g filter="url(#filter4_bdd_602_2329)">
<path d="M42.632 88.6242C43.7216 87.2256 45.9619 87.9071 46.0881 89.6755L46.5115 95.6042C46.7222 98.5549 43.9084 100.8 41.0782 99.9389C38.2481 99.078 37.1609 95.6465 38.979 93.313L42.632 88.6242Z" fill="url(#paint8_linear_602_2329)" stroke="url(#paint9_linear_602_2329)" stroke-width="1.08234"/>
<path d="M63.38 88.6242C64.4696 87.2256 66.7099 87.9071 66.8362 89.6755L67.2596 95.6042C67.4703 98.5549 64.6564 100.8 61.8263 99.9389C58.9961 99.078 57.9089 95.6465 59.727 93.313L63.38 88.6242Z" fill="url(#paint10_linear_602_2329)" stroke="url(#paint11_linear_602_2329)" stroke-width="1.08234"/>
<path d="M84.1271 88.6242C85.2167 87.2256 87.457 87.9071 87.5833 89.6755L88.0066 95.6042C88.2173 98.5549 85.4035 100.8 82.5734 99.9389C79.7432 99.078 78.656 95.6465 80.4741 93.313L84.1271 88.6242Z" fill="url(#paint12_linear_602_2329)" stroke="url(#paint13_linear_602_2329)" stroke-width="1.08234"/>
</g>
<g filter="url(#filter5_bdd_602_2329)">
<path d="M50.5695 105.045C51.6591 103.647 53.8994 104.328 54.0256 106.096L54.449 112.025C54.6597 114.976 51.8459 117.221 49.0157 116.36C46.1856 115.499 45.0984 112.067 46.9165 109.734L50.5695 105.045Z" fill="url(#paint14_linear_602_2329)" stroke="url(#paint15_linear_602_2329)" stroke-width="1.08234"/>
<path d="M71.4943 105.045C72.5839 103.647 74.8242 104.328 74.9505 106.096L75.3738 112.025C75.5845 114.976 72.7707 117.221 69.9405 116.36C67.1104 115.499 66.0232 112.067 67.8413 109.734L71.4943 105.045Z" fill="url(#paint16_linear_602_2329)" stroke="url(#paint17_linear_602_2329)" stroke-width="1.08234"/>
</g>
<defs>
<filter id="filter0_bd_602_2329" x="0.384679" y="0.37273" width="98.1326" height="78.0564" filterUnits="userSpaceOnUse" color-interpolation-filters="sRGB">
<feFlood flood-opacity="0" result="BackgroundImageFix"/>
<feGaussianBlur in="BackgroundImageFix" stdDeviation="2.52545"/>
<feComposite in2="SourceAlpha" operator="in" result="effect1_backgroundBlur_602_2329"/>
<feColorMatrix in="SourceAlpha" type="matrix" values="0 0 0 0 0 0 0 0 0 0 0 0 0 0 0 0 0 0 127 0" result="hardAlpha"/>
<feOffset dx="-7.57636" dy="5.41169"/>
<feGaussianBlur stdDeviation="9.01948"/>
<feComposite in2="hardAlpha" operator="out"/>
<feColorMatrix type="matrix" values="0 0 0 0 0.113438 0 0 0 0 0.148981 0 0 0 0 0.275 0 0 0 0.25 0"/>
<feBlend mode="normal" in2="effect1_backgroundBlur_602_2329" result="effect2_dropShadow_602_2329"/>
<feBlend mode="normal" in="SourceGraphic" in2="effect2_dropShadow_602_2329" result="shape"/>
</filter>
<filter id="filter1_bd_602_2329" x="14.8163" y="13.0007" width="121.943" height="94.1639" filterUnits="userSpaceOnUse" color-interpolation-filters="sRGB">
<feFlood flood-opacity="0" result="BackgroundImageFix"/>
<feGaussianBlur in="BackgroundImageFix" stdDeviation="2.52545"/>
<feComposite in2="SourceAlpha" operator="in" result="effect1_backgroundBlur_602_2329"/>
<feColorMatrix in="SourceAlpha" type="matrix" values="0 0 0 0 0 0 0 0 0 0 0 0 0 0 0 0 0 0 127 0" result="hardAlpha"/>
<feOffset dx="-7.57636" dy="5.41169"/>
<feGaussianBlur stdDeviation="9.01948"/>
<feComposite in2="hardAlpha" operator="out"/>
<feColorMatrix type="matrix" values="0 0 0 0 0.113725 0 0 0 0 0.14902 0 0 0 0 0.27451 0 0 0 0.25 0"/>
<feBlend mode="normal" in2="effect1_backgroundBlur_602_2329" result="effect2_dropShadow_602_2329"/>
<feBlend mode="normal" in="SourceGraphic" in2="effect2_dropShadow_602_2329" result="shape"/>
</filter>
<filter id="filter2_bdd_602_2329" x="73.3954" y="35.3694" width="87.0057" height="110.133" filterUnits="userSpaceOnUse" color-interpolation-filters="sRGB">
<feFlood flood-opacity="0" result="BackgroundImageFix"/>
<feGaussianBlur in="BackgroundImageFix" stdDeviation="2.52545"/>
<feComposite in2="SourceAlpha" operator="in" result="effect1_backgroundBlur_602_2329"/>
<feColorMatrix in="SourceAlpha" type="matrix" values="0 0 0 0 0 0 0 0 0 0 0 0 0 0 0 0 0 0 127 0" result="hardAlpha"/>
<feOffset dx="-7.57636" dy="5.41169"/>
<feGaussianBlur stdDeviation="9.01948"/>
<feComposite in2="hardAlpha" operator="out"/>
<feColorMatrix type="matrix" values="0 0 0 0 0.113438 0 0 0 0 0.148981 0 0 0 0 0.275 0 0 0 0.25 0"/>
<feBlend mode="normal" in2="effect1_backgroundBlur_602_2329" result="effect2_dropShadow_602_2329"/>
<feColorMatrix in="SourceAlpha" type="matrix" values="0 0 0 0 0 0 0 0 0 0 0 0 0 0 0 0 0 0 127 0" result="hardAlpha"/>
<feOffset/>
<feGaussianBlur stdDeviation="11.0038"/>
<feComposite in2="hardAlpha" operator="out"/>
<feColorMatrix type="matrix" values="0 0 0 0 1 0 0 0 0 0.721569 0 0 0 0 0.00392157 0 0 0 0.49 0"/>
<feBlend mode="normal" in2="effect2_dropShadow_602_2329" result="effect3_dropShadow_602_2329"/>
<feBlend mode="normal" in="SourceGraphic" in2="effect3_dropShadow_602_2329" result="shape"/>
</filter>
<filter id="filter3_bd_602_2329" x="62.4394" y="13.0007" width="98.1326" height="78.0555" filterUnits="userSpaceOnUse" color-interpolation-filters="sRGB">
<feFlood flood-opacity="0" result="BackgroundImageFix"/>
<feGaussianBlur in="BackgroundImageFix" stdDeviation="2.52545"/>
<feComposite in2="SourceAlpha" operator="in" result="effect1_backgroundBlur_602_2329"/>
<feColorMatrix in="SourceAlpha" type="matrix" values="0 0 0 0 0 0 0 0 0 0 0 0 0 0 0 0 0 0 127 0" result="hardAlpha"/>
<feOffset dx="-7.57636" dy="5.41169"/>
<feGaussianBlur stdDeviation="9.01948"/>
<feComposite in2="hardAlpha" operator="out"/>
<feColorMatrix type="matrix" values="0 0 0 0 0.113438 0 0 0 0 0.148981 0 0 0 0 0.275 0 0 0 0.25 0"/>
<feBlend mode="normal" in2="effect1_backgroundBlur_602_2329" result="effect2_dropShadow_602_2329"/>
<feBlend mode="normal" in="SourceGraphic" in2="effect2_dropShadow_602_2329" result="shape"/>
</filter>
<filter id="filter4_bdd_602_2329" x="11.9296" y="70.0166" width="91.4209" height="54.1001" filterUnits="userSpaceOnUse" color-interpolation-filters="sRGB">
<feFlood flood-opacity="0" result="BackgroundImageFix"/>
<feGaussianBlur in="BackgroundImageFix" stdDeviation="2.52545"/>
<feComposite in2="SourceAlpha" operator="in" result="effect1_backgroundBlur_602_2329"/>
<feColorMatrix in="SourceAlpha" type="matrix" values="0 0 0 0 0 0 0 0 0 0 0 0 0 0 0 0 0 0 127 0" result="hardAlpha"/>
<feOffset dx="-7.57636" dy="5.41169"/>
<feGaussianBlur stdDeviation="9.01948"/>
<feComposite in2="hardAlpha" operator="out"/>
<feColorMatrix type="matrix" values="0 0 0 0 0.113438 0 0 0 0 0.148981 0 0 0 0 0.275 0 0 0 0.25 0"/>
<feBlend mode="normal" in2="effect1_backgroundBlur_602_2329" result="effect2_dropShadow_602_2329"/>
<feColorMatrix in="SourceAlpha" type="matrix" values="0 0 0 0 0 0 0 0 0 0 0 0 0 0 0 0 0 0 127 0" result="hardAlpha"/>
<feOffset dy="-2.52545"/>
<feGaussianBlur stdDeviation="7.39597"/>
<feComposite in2="hardAlpha" operator="out"/>
<feColorMatrix type="matrix" values="0 0 0 0 0.1375 0 0 0 0 0.74125 0 0 0 0 1 0 0 0 0.3 0"/>
<feBlend mode="normal" in2="effect2_dropShadow_602_2329" result="effect3_dropShadow_602_2329"/>
<feBlend mode="normal" in="SourceGraphic" in2="effect3_dropShadow_602_2329" result="shape"/>
</filter>
<filter id="filter5_bdd_602_2329" x="19.8671" y="86.4375" width="70.8506" height="54.1001" filterUnits="userSpaceOnUse" color-interpolation-filters="sRGB">
<feFlood flood-opacity="0" result="BackgroundImageFix"/>
<feGaussianBlur in="BackgroundImageFix" stdDeviation="2.52545"/>
<feComposite in2="SourceAlpha" operator="in" result="effect1_backgroundBlur_602_2329"/>
<feColorMatrix in="SourceAlpha" type="matrix" values="0 0 0 0 0 0 0 0 0 0 0 0 0 0 0 0 0 0 127 0" result="hardAlpha"/>
<feOffset dx="-7.57636" dy="5.41169"/>
<feGaussianBlur stdDeviation="9.01948"/>
<feComposite in2="hardAlpha" operator="out"/>
<feColorMatrix type="matrix" values="0 0 0 0 0.113438 0 0 0 0 0.148981 0 0 0 0 0.275 0 0 0 0.25 0"/>
<feBlend mode="normal" in2="effect1_backgroundBlur_602_2329" result="effect2_dropShadow_602_2329"/>
<feColorMatrix in="SourceAlpha" type="matrix" values="0 0 0 0 0 0 0 0 0 0 0 0 0 0 0 0 0 0 127 0" result="hardAlpha"/>
<feOffset dy="-2.52545"/>
<feGaussianBlur stdDeviation="7.39597"/>
<feComposite in2="hardAlpha" operator="out"/>
<feColorMatrix type="matrix" values="0 0 0 0 0.1375 0 0 0 0 0.74125 0 0 0 0 1 0 0 0 0.3 0"/>
<feBlend mode="normal" in2="effect2_dropShadow_602_2329" result="effect3_dropShadow_602_2329"/>
<feBlend mode="normal" in="SourceGraphic" in2="effect3_dropShadow_602_2329" result="shape"/>
</filter>
<linearGradient id="paint0_linear_602_2329" x1="59.9133" y1="14.2628" x2="59.9133" y2="59.7222" gradientUnits="userSpaceOnUse">
<stop stop-color="white"/>
<stop offset="1" stop-color="white" stop-opacity="0"/>
</linearGradient>
<linearGradient id="paint1_linear_602_2329" x1="57.0271" y1="13" x2="57.0271" y2="54.9788" gradientUnits="userSpaceOnUse">
<stop stop-color="white"/>
<stop offset="1" stop-color="white" stop-opacity="0"/>
</linearGradient>
<linearGradient id="paint2_linear_602_2329" x1="83.3645" y1="7.04779" x2="83.3645" y2="91.8309" gradientUnits="userSpaceOnUse">
<stop stop-color="white"/>
<stop offset="1" stop-color="white" stop-opacity="0"/>
</linearGradient>
<linearGradient id="paint3_linear_602_2329" x1="83.3645" y1="25.6279" x2="83.3645" y2="83.7134" gradientUnits="userSpaceOnUse">
<stop stop-color="white"/>
<stop offset="1" stop-color="white" stop-opacity="0"/>
</linearGradient>
<linearGradient id="paint4_linear_602_2329" x1="122.869" y1="61.3455" x2="113.85" y2="100.49" gradientUnits="userSpaceOnUse">
<stop stop-color="#FF4D00"/>
<stop offset="1" stop-color="#FFB800"/>
</linearGradient>
<linearGradient id="paint5_linear_602_2329" x1="110.783" y1="99.9489" x2="127.199" y2="64.7729" gradientUnits="userSpaceOnUse">
<stop stop-color="white"/>
<stop offset="1" stop-color="white" stop-opacity="0"/>
</linearGradient>
<linearGradient id="paint6_linear_602_2329" x1="121.968" y1="26.8907" x2="121.968" y2="72.3491" gradientUnits="userSpaceOnUse">
<stop stop-color="white"/>
<stop offset="1" stop-color="white" stop-opacity="0"/>
</linearGradient>
<linearGradient id="paint7_linear_602_2329" x1="119.082" y1="25.6279" x2="119.082" y2="67.6059" gradientUnits="userSpaceOnUse">
<stop stop-color="white"/>
<stop offset="1" stop-color="white" stop-opacity="0"/>
</linearGradient>
<linearGradient id="paint8_linear_602_2329" x1="46.1686" y1="83.2043" x2="40.9207" y2="100.457" gradientUnits="userSpaceOnUse">
<stop stop-color="#138EFF"/>
<stop offset="1" stop-color="#00E0FF"/>
</linearGradient>
<linearGradient id="paint9_linear_602_2329" x1="46.1686" y1="83.2043" x2="40.9207" y2="100.457" gradientUnits="userSpaceOnUse">
<stop stop-color="white"/>
<stop offset="1" stop-color="white" stop-opacity="0"/>
</linearGradient>
<linearGradient id="paint10_linear_602_2329" x1="66.9166" y1="83.2043" x2="61.6688" y2="100.457" gradientUnits="userSpaceOnUse">
<stop stop-color="#138EFF"/>
<stop offset="1" stop-color="#00E0FF"/>
</linearGradient>
<linearGradient id="paint11_linear_602_2329" x1="66.9166" y1="83.2043" x2="61.6688" y2="100.457" gradientUnits="userSpaceOnUse">
<stop stop-color="white"/>
<stop offset="1" stop-color="white" stop-opacity="0"/>
</linearGradient>
<linearGradient id="paint12_linear_602_2329" x1="87.6637" y1="83.2043" x2="82.4159" y2="100.457" gradientUnits="userSpaceOnUse">
<stop stop-color="#138EFF"/>
<stop offset="1" stop-color="#00E0FF"/>
</linearGradient>
<linearGradient id="paint13_linear_602_2329" x1="87.6637" y1="83.2043" x2="82.4159" y2="100.457" gradientUnits="userSpaceOnUse">
<stop stop-color="white"/>
<stop offset="1" stop-color="white" stop-opacity="0"/>
</linearGradient>
<linearGradient id="paint14_linear_602_2329" x1="54.1061" y1="99.6252" x2="48.8582" y2="116.878" gradientUnits="userSpaceOnUse">
<stop stop-color="#138EFF"/>
<stop offset="1" stop-color="#00E0FF"/>
</linearGradient>
<linearGradient id="paint15_linear_602_2329" x1="54.1061" y1="99.6252" x2="48.8582" y2="116.878" gradientUnits="userSpaceOnUse">
<stop stop-color="white"/>
<stop offset="1" stop-color="white" stop-opacity="0"/>
</linearGradient>
<linearGradient id="paint16_linear_602_2329" x1="75.0309" y1="99.6252" x2="69.7831" y2="116.878" gradientUnits="userSpaceOnUse">
<stop stop-color="#138EFF"/>
<stop offset="1" stop-color="#00E0FF"/>
</linearGradient>
<linearGradient id="paint17_linear_602_2329" x1="75.0309" y1="99.6252" x2="69.7831" y2="116.878" gradientUnits="userSpaceOnUse">
<stop stop-color="white"/>
<stop offset="1" stop-color="white" stop-opacity="0"/>
</linearGradient>
</defs>
</svg>
