<svg width="22" height="37" viewBox="0 0 22 37" fill="none" xmlns="http://www.w3.org/2000/svg">
<path d="M8.88399 36.4405C13.7621 36.4405 17.7195 32.4993 17.7195 27.605C17.7195 25.1013 16.7019 22.9046 14.7797 21.1278C14.4405 20.8209 14.3598 20.627 14.3598 20.1747L14.3759 6.02496C14.3759 2.40675 12.163 0 8.88399 0C5.57269 0 3.32746 2.40675 3.32746 6.02496L3.35977 20.1747C3.35977 20.627 3.279 20.8209 2.93979 21.1278C1.00147 22.8884 0 25.1013 0 27.605C0 32.4993 3.95742 36.4405 8.88399 36.4405ZM8.88399 33.63C5.52423 33.63 2.82673 30.9163 2.82673 27.5727C2.82673 25.5213 3.79589 23.7445 5.49192 22.5977C5.99266 22.2746 6.18649 21.9677 6.18649 21.3216V6.13803C6.18649 4.11894 7.26872 2.82673 8.88399 2.82673C10.4508 2.82673 11.533 4.11894 11.533 6.13803V21.3216C11.533 21.9677 11.7269 22.2746 12.2276 22.5977C13.9236 23.7445 14.8928 25.5213 14.8928 27.5727C14.8928 30.9163 12.1953 33.63 8.88399 33.63ZM17.4611 6.31571H20.9985C21.6123 6.31571 22 5.86344 22 5.3304C22 4.79736 21.6123 4.34508 20.9985 4.34508H17.4611C16.8473 4.34508 16.4435 4.79736 16.4435 5.3304C16.4435 5.86344 16.8473 6.31571 17.4611 6.31571ZM17.4611 10.79H20.9985C21.6123 10.79 22 10.3377 22 9.8047C22 9.27166 21.6123 8.81938 20.9985 8.81938H17.4611C16.8473 8.81938 16.4435 9.27166 16.4435 9.8047C16.4435 10.3377 16.8473 10.79 17.4611 10.79ZM17.4611 15.2966H20.9985C21.6123 15.2966 22 14.8443 22 14.3113C22 13.7783 21.6123 13.326 20.9985 13.326H17.4611C16.8473 13.326 16.4435 13.7783 16.4435 14.3113C16.4435 14.8443 16.8473 15.2966 17.4611 15.2966ZM8.85169 31.4493C11 31.4493 12.7283 29.721 12.7283 27.5565C12.7283 26.0705 11.8884 24.8267 10.6446 24.1645C10.1278 23.8899 9.96623 23.696 9.96623 22.9207V14.6667C9.96623 13.8429 9.48164 13.326 8.85169 13.326C8.23789 13.326 7.7533 13.8429 7.7533 14.6667V22.9207C7.7533 23.696 7.59178 23.8899 7.07489 24.1645C5.83113 24.8267 4.99119 26.0705 4.99119 27.5565C4.99119 29.721 6.71953 31.4493 8.85169 31.4493ZM17.4611 19.7871H20.9985C21.6123 19.7871 22 19.3348 22 18.8018C22 18.2687 21.6123 17.8164 20.9985 17.8164H17.4611C16.8473 17.8164 16.4435 18.2687 16.4435 18.8018C16.4435 19.3348 16.8473 19.7871 17.4611 19.7871Z" fill="#D9D9D9"/>
</svg>
