<svg width="41" height="47" viewBox="0 0 41 47" fill="none" xmlns="http://www.w3.org/2000/svg">
<path d="M39.3828 23.369C38.1366 23.1564 36.8738 23.056 35.6096 23.0689C34.3439 23.0537 33.0794 23.1542 31.832 23.369C33.0798 23.5804 34.3441 23.6794 35.6096 23.6649C36.8736 23.6771 38.1362 23.5781 39.3828 23.369Z" fill="#FFC727"/>
<path d="M20.2291 11.7228C20.4387 9.7762 20.5375 7.81924 20.5249 5.86141C20.5398 3.90353 20.441 1.94643 20.2291 0C20.0157 1.94635 19.9155 3.90345 19.9289 5.86141C19.9178 7.81932 20.018 9.77628 20.2291 11.7228Z" fill="#FFC727"/>
<path d="M26.04 13.2876C26.8545 12.3023 27.5791 11.2461 28.2054 10.1317C28.8574 9.03116 29.4098 7.87459 29.8562 6.67578C28.2503 8.66939 26.963 10.8998 26.04 13.2876Z" fill="#FFC727"/>
<path d="M30.2852 17.5497C32.0779 16.7617 33.8231 15.8697 35.512 14.8784C37.2151 13.909 38.8601 12.841 40.4386 11.6797C38.6464 12.4675 36.9025 13.3609 35.2161 14.3553C33.5123 15.3241 31.8659 16.3907 30.2852 17.5497Z" fill="#FFC727"/>
<path d="M8.58362 23.3256C7.337 23.1164 6.07437 23.0174 4.81037 23.0297C3.5463 23.0151 2.28345 23.1141 1.03711 23.3256C2.28306 23.5406 3.5461 23.6411 4.81037 23.6257C6.07457 23.6388 7.33739 23.5384 8.58362 23.3256Z" fill="#FFC727"/>
<path d="M10.1535 17.5157C8.57155 16.3612 6.92524 15.2975 5.22253 14.3299C3.5343 13.3388 1.79059 12.4455 0 11.6543C1.57771 12.8141 3.22281 13.8794 4.92667 14.8444C6.61598 15.8349 8.36116 16.7268 10.1535 17.5157Z" fill="#FFC727"/>
<path d="M14.4154 13.2708C13.9669 12.0819 13.416 10.9342 12.7689 9.8406C12.1485 8.73036 11.431 7.67717 10.625 6.69336C11.0691 7.88416 11.6202 9.03227 12.2715 10.1236C12.8919 11.2338 13.6094 12.287 14.4154 13.2708Z" fill="#FFC727"/>
<path d="M20.2085 34.9971C19.9987 36.9437 19.8999 38.9006 19.9126 40.8585C19.8977 42.8164 19.9965 44.7735 20.2085 46.7199C20.4218 44.7735 20.522 42.8164 20.5086 40.8585C20.5198 38.9006 20.4196 36.9436 20.2085 34.9971Z" fill="#FFC727"/>
<path d="M14.3903 33.4316C12.7834 35.4229 11.4959 37.6521 10.5742 40.0391C11.3886 39.0538 12.1133 37.9977 12.7395 36.8833C13.3907 35.7838 13.9431 34.6287 14.3903 33.4316Z" fill="#FFC727"/>
<path d="M10.1535 29.1699C8.36136 29.956 6.61618 30.8451 4.92667 31.8326C3.22281 32.7977 1.57771 33.8629 0 35.0228C1.79059 34.2315 3.5343 33.3382 5.22253 32.3472C6.92503 31.3823 8.57134 30.3215 10.1535 29.1699Z" fill="#FFC727"/>
<path d="M30.2852 29.1992C31.866 30.3566 33.5124 31.4218 35.2161 32.3893C36.9043 33.3804 38.648 34.2737 40.4386 35.0649C38.8609 33.9051 37.2158 32.8398 35.512 31.8748C33.8223 30.8838 32.0771 29.9904 30.2852 29.1992Z" fill="#FFC727"/>
<path d="M26.0225 33.4482C26.4709 34.6372 27.0218 35.7849 27.669 36.8785C28.2884 37.988 29.0059 39.0398 29.8129 40.0214C29.3682 38.8309 28.8171 37.6828 28.1664 36.5912C27.5457 35.4824 26.8283 34.4307 26.0225 33.4482Z" fill="#FFC727"/>
<path d="M20.2215 32.6647C25.3602 32.6647 29.526 28.4989 29.526 23.3602C29.526 18.2214 25.3602 14.0557 20.2215 14.0557C15.0828 14.0557 10.917 18.2214 10.917 23.3602C10.917 28.4989 15.0828 32.6647 20.2215 32.6647Z" fill="#FFC727"/>
</svg>
